<?xml version="1.0" encoding="utf-8"?>
<!-- Generator: Adobe Illustrator 14.0.0, SVG Export Plug-In . SVG Version: 6.00 Build 43363)  -->
<!DOCTYPE svg PUBLIC "-//W3C//DTD SVG 1.1//EN" "http://www.w3.org/Graphics/SVG/1.1/DTD/svg11.dtd">
<svg version="1.1" id="Layer_1" xmlns="http://www.w3.org/2000/svg" xmlns:xlink="http://www.w3.org/1999/xlink" x="0px" y="0px"
	 width="50px" height="50px" viewBox="0 0 50 50" enable-background="new 0 0 50 50" xml:space="preserve">
<path fill="#D9D9D8" d="M46.625,25.635c0,8.751,0.429,18.047-8.32,18.047H9.911c-8.751,0-8.083-8.029-8.083-16.774v-4.844
	c0-8.752-0.667-16.182,8.083-16.182h28.394c8.749,0,8.32,6.158,8.32,14.91V25.635z"/>
<linearGradient id="SVGID_1_" gradientUnits="userSpaceOnUse" x1="1562.4863" y1="-1740.3687" x2="1515.9329" y2="-1703.4469" gradientTransform="matrix(1 0 0 -1 -1510.5 -1695)">
	<stop  offset="0" style="stop-color:#F1D76A"/>
	<stop  offset="1" style="stop-color:#FCF7B1"/>
</linearGradient>
<path fill="url(#SVGID_1_)" stroke="#5F646C" stroke-width="3" d="M46.623,24.299c0,8.751,0.429,18.046-8.319,18.046H9.91
	c-8.75,0-8.083-8.025-8.083-16.773v-4.843c0-8.751-0.667-16.181,8.083-16.181h28.394c8.75,0,8.319,6.157,8.319,14.91V24.299z"/>
<linearGradient id="SVGID_2_" gradientUnits="userSpaceOnUse" x1="-875.7153" y1="1053.7256" x2="-910.1722" y2="1081.0537" gradientTransform="matrix(-1 0 0 1 -868.5 -1044)">
	<stop  offset="0" style="stop-color:#FFFFFF"/>
	<stop  offset="1" style="stop-color:#FFFFFF;stop-opacity:0"/>
</linearGradient>
<path opacity="0.6" fill="url(#SVGID_2_)" enable-background="new    " d="M3.995,22.353c0-7.903-0.385-16.292,7.513-16.292h25.634
	c7.9,0,7.297,7.247,7.297,15.145v4.375c0,7.901,0.603,14.607-7.297,14.607H11.508c-7.898,0-7.513-5.561-7.513-13.463V22.353z"/>
<rect x="20.544" y="10.374" width="16.051" height="2.178"/>
<rect x="3.034" y="16.848" fill="#FFFFFF" stroke="#5F646C" width="42.492" height="12.548"/>
<line fill="none" stroke="#5F646C" stroke-width="3" x1="16.984" y1="4.548" x2="16.984" y2="16.528"/>
<rect x="8.404" y="10.375" width="2.511" height="2.177"/>
<rect x="11.527" y="21.067" fill="#A0A0A0" width="26.937" height="4.11"/>
</svg>
