<?xml version="1.0" encoding="UTF-8" standalone="no"?>
<svg
   xmlns:dc="http://purl.org/dc/elements/1.1/"
   xmlns:cc="http://creativecommons.org/ns#"
   xmlns:rdf="http://www.w3.org/1999/02/22-rdf-syntax-ns#"
   xmlns:svg="http://www.w3.org/2000/svg"
   xmlns="http://www.w3.org/2000/svg"
   xmlns:sodipodi="http://sodipodi.sourceforge.net/DTD/sodipodi-0.dtd"
   xmlns:inkscape="http://www.inkscape.org/namespaces/inkscape"
   xml:space="preserve"
   style="enable-background:new 0 0 36 36;"
   viewBox="0 0 36 36"
   height="36px"
   width="36px"
   y="0px"
   x="0px"
   id="svg2"
   version="1.1"
   inkscape:version="0.91 r13725"
   sodipodi:docname="ArchiMateCourseOfAction.svg"><sodipodi:namedview
     pagecolor="#ffffff"
     bordercolor="#666666"
     borderopacity="1"
     objecttolerance="10"
     gridtolerance="10"
     guidetolerance="10"
     inkscape:pageopacity="0"
     inkscape:pageshadow="2"
     inkscape:window-width="1710"
     inkscape:window-height="946"
     id="namedview14"
     showgrid="false"
     inkscape:zoom="6.5555556"
     inkscape:cx="18"
     inkscape:cy="18"
     inkscape:window-x="1680"
     inkscape:window-y="29"
     inkscape:window-maximized="0"
     inkscape:current-layer="svg2" /><metadata
     id="metadata19"><rdf:RDF><cc:Work
         rdf:about=""><dc:format>image/svg+xml</dc:format><dc:type
           rdf:resource="http://purl.org/dc/dcmitype/StillImage" /><dc:title /></cc:Work></rdf:RDF></metadata><defs
     id="defs17" /><style
     id="style3"
     type="text/css">
	.st0{fill:url(#rect8069_1_);stroke:#5F646C;stroke-width:2;}
	.st1{fill:none;stroke:#000000;}
	.st2{stroke:#000000;}
</style><linearGradient
     y2="18"
     x2="34.0941"
     y1="18"
     x1="1.9059"
     gradientUnits="userSpaceOnUse"
     id="rect8069_1_"><stop
       id="stop6"
       style="stop-color:#f5deaa;stop-opacity:1"
       offset="0" /><stop
       id="stop8"
       style="stop-color:#F5DEAA"
       offset="1" /></linearGradient><path
     d="M6.4,5h23.2c2.5,0,4.5,2,4.5,4.5v17c0,2.5-2,4.5-4.5,4.5H6.4c-2.5,0-4.5-2-4.5-4.5v-17  C1.9,7,3.9,5,6.4,5z"
     class="st0"
     id="rect8069" /><circle
     r="3.9"
     cy="13.3"
     cx="24.9"
     class="st1"
     id="svg_3-9" /><circle
     r="2.2"
     cy="13.3"
     cx="24.9"
     class="st2"
     id="svg_6" /><circle
     r="5.5"
     cy="13.3"
     cx="24.9"
     class="st1"
     id="svg_3-9_1_" /><path
     d="M19.3,26.9c-4.1,0.3-6.4-4.7-3.3-7.7l-1-1.1  l4.3-0.9l-1.1,4.3l-1-1.1C14.8,22.5,16.1,25.9,19.3,26.9L19.3,26.9z"
     id="path1432" /></svg>