<?xml version="1.0" encoding="utf-8"?>
<!-- Generator: Adobe Illustrator 14.0.0, SVG Export Plug-In . SVG Version: 6.00 Build 43363)  -->
<!DOCTYPE svg PUBLIC "-//W3C//DTD SVG 1.1//EN" "http://www.w3.org/Graphics/SVG/1.1/DTD/svg11.dtd">
<svg version="1.1" id="Layer_1" xmlns="http://www.w3.org/2000/svg" xmlns:xlink="http://www.w3.org/1999/xlink" x="0px" y="0px"
	 width="50px" height="50px" viewBox="0 0 50 50" enable-background="new 0 0 50 50" xml:space="preserve">
<polygon fill="#C7F5C3" stroke="#5A5F63" stroke-width="3" points="9.516,28.094 4.24,40.719 43.126,40.719 37.966,28.094 "/>
<path fill="#C7F5C3" stroke="#5A5F63" stroke-width="3" d="M44.191,5.695H3.175c-0.722,0-1.309,0.586-1.309,1.308v9.455v0.873v9.452
	c0,0.724,0.586,1.311,1.309,1.311h41.015c0.722,0,1.31-0.587,1.31-1.311v-9.452v-0.873V7.004
	C45.499,6.281,44.913,5.695,44.191,5.695z"/>
<path fill="#C7F5C3" stroke="#5A5F63" stroke-width="2" d="M38.754,9.581H7.565c-0.55,0-0.996,0.382-0.996,0.854v6.174v0.569v6.173
	c0,0.472,0.445,0.856,0.996,0.856h31.191c0.547,0,0.994-0.384,0.994-0.856v-6.173v-0.569v-6.175
	C39.748,9.961,39.303,9.581,38.754,9.581z"/>
</svg>
