<?xml version="1.0" encoding="utf-8"?>
<!-- Generator: Adobe Illustrator 20.1.0, SVG Export Plug-In . SVG Version: 6.00 Build 0)  -->
<svg version="1.1" id="Layer_1" xmlns="http://www.w3.org/2000/svg" xmlns:xlink="http://www.w3.org/1999/xlink" x="0px" y="0px"
	 width="50px" height="50px" viewBox="0 0 50 50" style="enable-background:new 0 0 50 50;" xml:space="preserve">
<style type="text/css">
	.st0{fill:#C7F5C3;}
	.st1{fill:#5F646C;}
	.st2{fill:#C7F5C3;stroke:#C7ECB3;stroke-width:2;}
	.st3{opacity:0.4;fill:url(#SVGID_1_);enable-background:new    ;}
	.st4{fill:#C7F5C3;stroke:#2C2C2C;stroke-width:0.75;stroke-linecap:round;stroke-linejoin:round;}
</style>
<polygon class="st0" points="6.6,11.5 12.1,8.2 12.1,36.7 6.6,39.7 "/>
<polygon class="st1" points="0.3,10.1 8.2,5.7 47.5,5.7 47.5,38.6 40.5,42.5 0.3,42.5 "/>
<polygon class="st0" points="4.1,10.5 9.7,7.4 44.2,7.4 38.8,10.5 "/>
<rect x="4.1" y="13.3" class="st2" width="32.1" height="25.5"/>
<polygon class="st0" points="39.7,12.2 45,9 45,36.7 39.7,39.6 "/>
<linearGradient id="SVGID_1_" gradientUnits="userSpaceOnUse" x1="1131.5232" y1="-1447.5383" x2="1154.2292" y2="-1469.6746" gradientTransform="matrix(1 0 0 -1 -1124 -1434)">
	<stop  offset="0" style="stop-color:#FFFFFF"/>
	<stop  offset="1" style="stop-color:#FFFFFF;stop-opacity:0"/>
</linearGradient>
<rect x="4.1" y="13.3" class="st3" width="31.8" height="24.9"/>
<g id="g3518" transform="translate(-252.4 4.5158)">
	<path id="path58241" class="st4" d="M267.6,17.5c-0.5,0-1,0.1-1.4,0.1v1.1c-0.6,0.2-1.2,0.4-1.7,0.7l-0.8-0.8
		c-0.4,0.3-0.8,0.6-1.1,0.9c-0.3,0.3-0.7,0.7-0.9,1.1l0.8,0.8c-0.3,0.5-0.6,1.1-0.7,1.7h-1.1c-0.1,0.5-0.1,0.9-0.1,1.4
		c0,0.5,0.1,1,0.1,1.4h1.1c0.2,0.6,0.4,1.2,0.7,1.7l-0.8,0.8c0.3,0.4,0.6,0.8,0.9,1.1c0.3,0.3,0.7,0.7,1.1,0.9l0.8-0.8
		c0.5,0.3,1.1,0.6,1.7,0.7v1.1c0.5,0.1,0.9,0.1,1.4,0.1c0.5,0,1-0.1,1.4-0.1v-1.1c0.6-0.2,1.2-0.4,1.7-0.7l0.8,0.8
		c0.4-0.3,0.8-0.6,1.1-0.9c0.3-0.3,0.7-0.7,0.9-1.1l-0.8-0.8c0.3-0.5,0.6-1.1,0.7-1.7h1.1c0.1-0.5,0.1-0.9,0.1-1.4
		c0-0.5-0.1-1-0.1-1.4h-1.1c-0.2-0.6-0.4-1.2-0.7-1.7l0.8-0.8c-0.3-0.4-0.6-0.8-0.9-1.1c-0.3-0.3-0.7-0.7-1.1-0.9l-0.8,0.8
		c-0.5-0.3-1.1-0.6-1.7-0.7v-1.1C268.6,17.6,268.1,17.5,267.6,17.5z M267.6,21.1c2,0,3.6,1.6,3.6,3.6s-1.6,3.6-3.6,3.6
		c-2,0-3.6-1.6-3.6-3.6S265.7,21.1,267.6,21.1z"/>
</g>
<g id="g3518_1_" transform="translate(-252.4 4.5158)">
	<path id="path58241_1_" class="st4" d="M279,11.1c-0.4,0-0.7,0-1.1,0.1v0.8c-0.5,0.1-0.9,0.3-1.3,0.5L276,12
		c-0.3,0.2-0.6,0.4-0.8,0.7c-0.3,0.3-0.5,0.5-0.7,0.8l0.6,0.6c-0.2,0.4-0.4,0.8-0.5,1.3h-0.8c-0.1,0.3-0.1,0.7-0.1,1.1
		c0,0.4,0,0.7,0.1,1.1h0.8c0.1,0.5,0.3,0.9,0.5,1.3l-0.6,0.6c0.2,0.3,0.4,0.6,0.7,0.8c0.3,0.3,0.5,0.5,0.8,0.7l0.6-0.6
		c0.4,0.2,0.8,0.4,1.3,0.5v0.8c0.3,0.1,0.7,0.1,1.1,0.1c0.4,0,0.7,0,1.1-0.1v-0.8c0.5-0.1,0.9-0.3,1.3-0.5L282,21
		c0.3-0.2,0.6-0.4,0.8-0.7c0.3-0.3,0.5-0.5,0.7-0.8l-0.6-0.6c0.2-0.4,0.4-0.8,0.5-1.3h0.8c0.1-0.3,0.1-0.7,0.1-1.1
		c0-0.4,0-0.7-0.1-1.1h-0.8c-0.1-0.5-0.3-0.9-0.5-1.3l0.6-0.6c-0.2-0.3-0.4-0.6-0.7-0.8c-0.3-0.3-0.5-0.5-0.8-0.7l-0.6,0.6
		c-0.4-0.2-0.8-0.4-1.3-0.5v-0.8C279.7,11.2,279.4,11.1,279,11.1z M279,13.8c1.5,0,2.7,1.2,2.7,2.7s-1.2,2.7-2.7,2.7
		c-1.5,0-2.7-1.2-2.7-2.7S277.5,13.8,279,13.8z"/>
</g>
</svg>
