<?xml version="1.0" encoding="utf-8"?>
<!-- Generator: Adobe Illustrator 20.1.0, SVG Export Plug-In . SVG Version: 6.00 Build 0)  -->
<svg version="1.1" id="Layer_1" xmlns="http://www.w3.org/2000/svg" xmlns:xlink="http://www.w3.org/1999/xlink" x="0px" y="0px"
	 width="50px" height="50px" viewBox="0 0 50 50" style="enable-background:new 0 0 50 50;" xml:space="preserve">
<style type="text/css">
	.st0{fill:#C7F5C3;}
	.st1{fill:#5F646C;}
	.st2{fill:#C7F5C3;stroke:#C7ECB3;stroke-width:2;}
	.st3{opacity:0.4;fill:url(#SVGID_1_);enable-background:new    ;}
	.st4{fill:none;stroke:#5F646C;stroke-width:2;}
</style>
<polygon class="st0" points="6.6,11.5 12.1,8.2 12.1,36.7 6.6,39.7 "/>
<polygon class="st1" points="0.3,10.1 8.2,5.7 47.5,5.7 47.5,38.6 40.5,42.5 0.3,42.5 "/>
<polygon class="st0" points="4.1,10.5 9.7,7.4 44.2,7.4 38.8,10.5 "/>
<rect x="4.1" y="13.3" class="st2" width="32.1" height="25.5"/>
<polygon class="st0" points="39.7,12.2 45,9 45,36.7 39.7,39.6 "/>
<linearGradient id="SVGID_1_" gradientUnits="userSpaceOnUse" x1="1131.5232" y1="-1447.5383" x2="1154.2292" y2="-1469.6746" gradientTransform="matrix(1 0 0 -1 -1124 -1434)">
	<stop  offset="0" style="stop-color:#FFFFFF"/>
	<stop  offset="1" style="stop-color:#FFFFFF;stop-opacity:0"/>
</linearGradient>
<rect x="4.1" y="13.3" class="st3" width="31.8" height="24.9"/>
<polygon class="st4" points="10.9,37 10.9,15 15.7,15 15.7,28.4 19.3,26.1 20.7,28.3 25,26 26.6,28.3 31.9,25.5 31.9,37 "/>
</svg>
