<?xml version="1.0" encoding="UTF-8" standalone="no"?>
<!-- Generator: Adobe Illustrator 14.0.0, SVG Export Plug-In . SVG Version: 6.00 Build 43363)  -->

<svg
   xmlns:dc="http://purl.org/dc/elements/1.1/"
   xmlns:cc="http://creativecommons.org/ns#"
   xmlns:rdf="http://www.w3.org/1999/02/22-rdf-syntax-ns#"
   xmlns:svg="http://www.w3.org/2000/svg"
   xmlns="http://www.w3.org/2000/svg"
   xmlns:sodipodi="http://sodipodi.sourceforge.net/DTD/sodipodi-0.dtd"
   xmlns:inkscape="http://www.inkscape.org/namespaces/inkscape"
   version="1.1"
   id="Layer_1"
   x="0px"
   y="0px"
   width="50px"
   height="50px"
   viewBox="0 0 50 50"
   enable-background="new 0 0 50 50"
   xml:space="preserve"
   inkscape:version="0.91 r13725"
   sodipodi:docname="ArchiMateMeaning.svg"><metadata
     id="metadata21"><rdf:RDF><cc:Work
         rdf:about=""><dc:format>image/svg+xml</dc:format><dc:type
           rdf:resource="http://purl.org/dc/dcmitype/StillImage" /></cc:Work></rdf:RDF></metadata><defs
     id="defs19" /><sodipodi:namedview
     pagecolor="#ffffff"
     bordercolor="#666666"
     borderopacity="1"
     objecttolerance="10"
     gridtolerance="10"
     guidetolerance="10"
     inkscape:pageopacity="0"
     inkscape:pageshadow="2"
     inkscape:window-width="1258"
     inkscape:window-height="631"
     id="namedview17"
     showgrid="false"
     inkscape:zoom="4.72"
     inkscape:cx="-19.067797"
     inkscape:cy="25"
     inkscape:window-x="1680"
     inkscape:window-y="52"
     inkscape:window-maximized="0"
     inkscape:current-layer="Layer_1" /><linearGradient
     id="SVGID_1_"
     gradientUnits="userSpaceOnUse"
     x1="574.6963"
     y1="754.3252"
     x2="596.36"
     y2="777.459"
     gradientTransform="matrix(1 0 0 1 -562 -742)"><stop
       offset="0"
       style="stop-color:#EFF791"
       id="stop4" /><stop
       offset="1"
       style="stop-color:#F3E379"
       id="stop6" /></linearGradient><path
     fill="url(#SVGID_1_)"
     stroke="#5F656D"
     stroke-width="3"
     d="M46.129,24.396c0-2.828-2.192-5.402-5.786-7.337  c0.016-1.286-0.277-2.453-0.953-3.419c-2.403-3.437-8.688-3.387-15.388-0.344c-6.701-3.043-12.986-3.093-15.39,0.344  c-0.675,0.966-0.968,2.133-0.952,3.42c-3.593,1.935-5.785,4.509-5.785,7.337c0,2.826,2.192,5.402,5.784,7.337  c-0.016,1.286,0.277,2.454,0.953,3.421c2.402,3.438,8.69,3.387,15.39,0.343c6.7,3.044,12.986,3.093,15.389-0.343  c0.676-0.967,0.97-2.135,0.953-3.421C43.937,29.799,46.129,27.224,46.129,24.396z"
     id="path8"
     style="fill:#a8aafa;fill-opacity:1" /><linearGradient
     id="SVGID_2_"
     gradientUnits="userSpaceOnUse"
     x1="571.6836"
     y1="751.6484"
     x2="584.5227"
     y2="765.197"
     gradientTransform="translate(-562.63559,-742.21187)"><stop
       offset="0"
       style="stop-color:#FFFFFF"
       id="stop11" /><stop
       offset="1"
       style="stop-color:#FFFFFF;stop-opacity:0"
       id="stop13" /></linearGradient></svg>