<?xml version="1.0" encoding="utf-8"?>
<!-- Generator: Adobe Illustrator 14.0.0, SVG Export Plug-In . SVG Version: 6.00 Build 43363)  -->
<!DOCTYPE svg PUBLIC "-//W3C//DTD SVG 1.1//EN" "http://www.w3.org/Graphics/SVG/1.1/DTD/svg11.dtd">
<svg version="1.1" id="Layer_1" xmlns="http://www.w3.org/2000/svg" xmlns:xlink="http://www.w3.org/1999/xlink" x="0px" y="0px"
	 width="50px" height="50px" viewBox="0 0 50 50" enable-background="new 0 0 50 50" xml:space="preserve">
<linearGradient id="SVGID_1_" gradientUnits="userSpaceOnUse" x1="1693.9131" y1="2234.5684" x2="1722.7156" y2="2263.3706" gradientTransform="matrix(1 0 0 1 -1686 -2226)">
	<stop  offset="0" style="stop-color:#67A8DC"/>
	<stop  offset="1" style="stop-color:#3E86C6"/>
</linearGradient>
<rect x="1.569" y="10.166" fill="url(#SVGID_1_)" stroke="#2C68A7" stroke-width="2" width="44.385" height="28.501"/>
<linearGradient id="SVGID_2_" gradientUnits="userSpaceOnUse" x1="1686.4395" y1="2227.0957" x2="1730.0894" y2="2270.7458" gradientTransform="matrix(1 0 0 1 -1686 -2226)">
	<stop  offset="0.0187" style="stop-color:#FFFFFF;stop-opacity:0.5"/>
	<stop  offset="0.3976" style="stop-color:#C7F5C3"/>
	<stop  offset="1" style="stop-color:#BDEFBB"/>
</linearGradient>
<rect x="1.569" y="10.167" fill="url(#SVGID_2_)" stroke="#5F656D" stroke-width="3" width="44.385" height="28.5"/>
<linearGradient id="SVGID_3_" gradientUnits="userSpaceOnUse" x1="849.6572" y1="-1073.8325" x2="881.4408" y2="-1099.2056" gradientTransform="matrix(1 0 0 -1 -843 -1063)">
	<stop  offset="0" style="stop-color:#FFFFFF"/>
	<stop  offset="1" style="stop-color:#FFFFFF;stop-opacity:0"/>
</linearGradient>
<rect x="3.732" y="12.561" opacity="0.7" fill="url(#SVGID_3_)" enable-background="new    " width="39.882" height="23.713"/>
<rect x="18.554" y="15.236" fill="#2F3134" width="7.629" height="7.631"/>
<rect x="32.257" y="15.236" fill="#2F3134" width="7.631" height="7.631"/>
<rect x="12.949" y="27.072" fill="#2F3134" width="7.629" height="7.63"/>
<rect x="26.652" y="27.072" fill="#2F3134" width="7.63" height="7.63"/>
<polyline fill="none" stroke="#2F3134" stroke-width="2" points="16.102,28.007 21.708,17.73 21.708,19.988 36.268,19.988 "/>
<polyline fill="none" stroke="#2F3134" stroke-width="2" points="36.928,21.934 31.322,32.211 31.322,29.951 16.763,29.951 "/>
<line fill="none" stroke="#2F3134" stroke-width="2" x1="31.322" y1="29.951" x2="16.763" y2="29.951"/>
</svg>
