<?xml version="1.0" encoding="utf-8"?>
<!-- Generator: Adobe Illustrator 14.0.0, SVG Export Plug-In . SVG Version: 6.00 Build 43363)  -->
<!DOCTYPE svg PUBLIC "-//W3C//DTD SVG 1.1//EN" "http://www.w3.org/Graphics/SVG/1.1/DTD/svg11.dtd">
<svg version="1.1" id="Layer_1" xmlns="http://www.w3.org/2000/svg" xmlns:xlink="http://www.w3.org/1999/xlink" x="0px" y="0px"
	 width="50px" height="50px" viewBox="0 0 50 50" enable-background="new 0 0 50 50" xml:space="preserve">
<polygon fill="#C7F5C3" points="6.556,11.493 12.073,8.214 12.073,36.744 6.556,39.727 "/>
<polygon fill="#5F646C" points="0.254,10.115 8.185,5.667 47.54,5.667 47.54,38.563 40.479,42.509 0.254,42.509 "/>
<polygon fill="#C7F5C3" points="4.142,10.506 9.701,7.401 44.154,7.401 38.752,10.525 "/>
<rect x="4.142" y="13.265" fill="#C7F5C3" stroke="#C7ECB3" stroke-width="2" width="32.105" height="25.485"/>
<polygon fill="#C7F5C3" points="39.676,12.156 45.048,8.963 45.048,36.744 39.676,39.648 "/>
<linearGradient id="SVGID_1_" gradientUnits="userSpaceOnUse" x1="1131.5234" y1="1497.5381" x2="1154.2295" y2="1519.6743" gradientTransform="matrix(1 0 0 1 -1124 -1484)">
	<stop  offset="0" style="stop-color:#FFFFFF"/>
	<stop  offset="1" style="stop-color:#FFFFFF;stop-opacity:0"/>
</linearGradient>
<rect x="4.142" y="13.265" opacity="0.4" fill="url(#SVGID_1_)" enable-background="new    " width="31.754" height="24.911"/>
<line fill="none" stroke="#5F646C" stroke-width="3" x1="22.134" y1="15.886" x2="37.416" y2="15.886"/>
<line fill="none" stroke="#5F646C" stroke-width="3" x1="17.509" y1="21.375" x2="32.791" y2="21.375"/>
<line fill="none" stroke="#5F646C" stroke-width="3" x1="12.583" y1="27.043" x2="27.863" y2="27.043"/>
</svg>
