<?xml version="1.0" encoding="utf-8"?>
<!-- Generator: Adobe Illustrator 14.0.0, SVG Export Plug-In . SVG Version: 6.00 Build 43363)  -->
<!DOCTYPE svg PUBLIC "-//W3C//DTD SVG 1.1//EN" "http://www.w3.org/Graphics/SVG/1.1/DTD/svg11.dtd">
<svg version="1.1" id="Layer_1" xmlns="http://www.w3.org/2000/svg" xmlns:xlink="http://www.w3.org/1999/xlink" x="0px" y="0px"
	 width="50px" height="50px" viewBox="0 0 50 50" enable-background="new 0 0 50 50" xml:space="preserve">
<g>
	<g>
		<g>
			<g>
				<g>
					<defs>
						<rect id="SVGID_1_" y="-0.13" width="50" height="50.26"/>
					</defs>
					<clipPath id="SVGID_2_">
						<use xlink:href="#SVGID_1_"  overflow="visible"/>
					</clipPath>
					
						<line clip-path="url(#SVGID_2_)" fill="none" stroke="#000000" stroke-width="3" stroke-dasharray="4,4,4,4,4,4" x1="50" y1="32.854" x2="2.888" y2="32.854"/>
				</g>
			</g>
		</g>
	</g>
	<g>
		<g>
			<g>
				<g>
					<defs>
						<rect id="SVGID_3_" y="-0.13" width="50" height="50.26"/>
					</defs>
					<clipPath id="SVGID_4_">
						<use xlink:href="#SVGID_3_"  overflow="visible"/>
					</clipPath>
				</g>
			</g>
		</g>
	</g>
	<g>
		<g>
			<g>
				<g>
					<defs>
						<rect id="SVGID_5_" y="-0.13" width="50" height="50.26"/>
					</defs>
					<clipPath id="SVGID_6_">
						<use xlink:href="#SVGID_5_"  overflow="visible"/>
					</clipPath>
					<g clip-path="url(#SVGID_6_)">
						<g enable-background="new    ">
							<path d="M19.973,30.219v-17.18h7.3c1.836,0,3.17,0.154,4.002,0.463s1.498,0.857,1.998,1.646s0.75,1.691,0.75,2.707
								c0,1.289-0.379,2.354-1.137,3.193c-0.758,0.839-1.891,1.369-3.398,1.588c0.75,0.438,1.369,0.918,1.857,1.441
								s1.146,1.452,1.975,2.789l2.099,3.352H31.27l-2.508-3.737c-0.891-1.336-1.5-2.179-1.828-2.525
								c-0.328-0.347-0.676-0.586-1.043-0.715c-0.367-0.129-0.949-0.193-1.746-0.193h-0.703v7.172H19.973z M23.441,20.305h2.566
								c1.664,0,2.703-0.07,3.117-0.211c0.414-0.141,0.737-0.383,0.974-0.727c0.234-0.344,0.352-0.773,0.352-1.289
								c0-0.578-0.154-1.045-0.463-1.4c-0.31-0.355-0.744-0.58-1.307-0.674c-0.281-0.039-1.125-0.059-2.531-0.059h-2.708V20.305z"/>
						</g>
					</g>
				</g>
			</g>
		</g>
	</g>
</g>
<polyline fill="none" stroke="#010101" stroke-width="4" points="10.783,39.786 3.113,32.239 10.783,24.286 "/>
</svg>
