<?xml version="1.0" encoding="utf-8"?>
<!-- Generator: Adobe Illustrator 25.3.1, SVG Export Plug-In . SVG Version: 6.00 Build 0)  -->
<svg version="1.1" id="Layer_1" xmlns="http://www.w3.org/2000/svg" xmlns:xlink="http://www.w3.org/1999/xlink" x="0px" y="0px"
	 viewBox="0 0 21 21" style="enable-background:new 0 0 21 21;" xml:space="preserve">
<style type="text/css">
	.st0{fill:#EF959D;}
	.st1{fill:#FFCF70;}
	.st2{fill:#99D19C;}
	.st3{fill:#50BAD3;}
</style>
<g id="collage">
	<path class="st0" d="M2.6,0.9h4.5v5H0.7V2.8C0.7,1.7,1.5,0.9,2.6,0.9z"/>
	<path class="st1" d="M8.6,0.9h9.7c1,0,1.9,0.8,1.9,1.9v3.1H8.6V0.9z"/>
	<path class="st2" d="M15.9,7h4.3v11.4c0,1-0.8,1.9-1.9,1.9h-2.4V7z"/>
	<g>
		<path class="st3" d="M7.6,11C6,11,4.9,12.3,5,13.9c0.1,1.2,1,2.2,2.1,2.4c1.8,0.4,3.3-0.9,3.3-2.6C10.3,12.2,9.1,11,7.6,11z"/>
		<path class="st3" d="M0.7,7v11.4c0,1,0.8,1.9,1.9,1.9h12V7H0.7z M7.8,17.8c-2.4,0.1-4.4-1.8-4.3-4.3c0.1-2.1,1.8-3.8,3.9-3.9
			c2.4-0.1,4.4,1.8,4.3,4.3C11.6,16,9.9,17.7,7.8,17.8z"/>
	</g>
</g>
</svg>
