<?xml version="1.0" encoding="utf-8"?>
<!-- Generator: Adobe Illustrator 26.3.1, SVG Export Plug-In . SVG Version: 6.00 Build 0)  -->
<svg version="1.1" id="Layer_1" xmlns="http://www.w3.org/2000/svg" xmlns:xlink="http://www.w3.org/1999/xlink" x="0px" y="0px"
	 viewBox="0 0 21 21" style="enable-background:new 0 0 21 21;" xml:space="preserve">
<style type="text/css">
	.st0{fill:#7A8785;}
	.st1{fill:#99D19C;}
	.st2{fill:none;stroke:#7A8785;stroke-linecap:round;stroke-miterlimit:10;}
	.st3{fill:#FFD3B7;}
</style>
<g id="interact">
	<g>
		<path class="st0" d="M15.7,5.7c-0.5,0.2-0.9,0.6-1.1,1c-0.5-0.2-1-0.2-1.5,0.1c-0.5,0.2-0.9,0.6-1.1,1c-0.2-0.1-0.4-0.1-0.6-0.1
			c0.3-1,0.2-2.1-0.2-3.2C10.2,2.1,7.4,1,5,2.1c-2.4,1-3.5,3.8-2.4,6.2c0.7,1.7,2.3,2.8,4.1,2.8l0.8,2c-0.9-0.3-2,0.1-2.4,1.1
			c-0.5,1,0,2.2,1,2.6l5.2,2.4c1.7,1.1,3.9,1.3,5.8,0.5c3.1-1.4,4.6-5,3.2-8.2l-2.1-4.7C17.9,5.7,16.7,5.2,15.7,5.7z M5,7.3l1.1,2.4
			c-1-0.3-1.8-1-2.3-1.9c-0.7-1.7,0-3.7,1.7-4.4s3.7,0,4.4,1.7c0.4,1,0.4,2.1-0.1,3l-1-2.5c-0.5-1-1.7-1.5-2.7-1.1
			C5.1,5,4.6,6.2,5,7.3z M19.2,12L19.2,12c1.1,2.5-0.1,5.3-2.5,6.4c-0.9,0.4-1.8,0.5-2.6,0.3c0.1-0.1,0.2-0.3,0.3-0.4
			c0.5-1,0-2.2-1-2.6l-3.9-1.8l-1.6-3.7c0,0,0,0,0-0.1L6.3,6.7c-0.2-0.4,0-0.8,0.4-0.9c0.4-0.2,0.8,0,0.9,0.4l1.9,4.4l0.6,1.4
			c0.1,0.3,0.5,0.5,0.9,0.4c0.3-0.1,0.5-0.5,0.4-0.9l-0.6-1.4c-0.2-0.4,0-0.8,0.4-0.9c0.4-0.2,0.8,0,0.9,0.4l0.6,1.4
			c0.1,0.3,0.5,0.5,0.9,0.4c0.3-0.1,0.5-0.5,0.4-0.9L13.3,9c-0.2-0.4,0-0.8,0.4-0.9c0.4-0.2,0.8,0,0.9,0.4l0.6,1.4
			c0.1,0.3,0.5,0.5,0.9,0.4c0.3-0.1,0.5-0.5,0.4-0.9L15.9,8c-0.2-0.4,0-0.8,0.4-0.9c0.4-0.2,0.8,0,0.9,0.4L19.2,12z"/>
		<path class="st1" d="M3.8,7.8c-0.7-1.7,0-3.7,1.7-4.4s3.7,0,4.4,1.7c0.4,1,0.4,2.1-0.1,3l-1-2.5c-0.5-1-1.7-1.5-2.7-1.1
			C5.1,5,4.6,6.2,5,7.2l1.1,2.4C5.1,9.4,4.3,8.7,3.8,7.8z"/>
		<path class="st2" d="M0.8,8.7c0,0-0.2,3.2,3.5,4"/>
		<path class="st2" d="M13.4,5.4c0,0,0.7-3.1-2.8-4.5"/>
		<path class="st3" d="M16.2,6.9c-0.4,0.2-0.5,0.6-0.4,0.9l0.6,1.4c0.1,0.3,0,0.7-0.4,0.9c-0.3,0.1-0.7,0-0.9-0.4l-0.6-1.4
			C14.4,8,14,7.9,13.7,8c-0.4,0.2-0.5,0.6-0.4,0.9l0.6,1.4c0.1,0.3,0,0.7-0.4,0.9c-0.3,0.1-0.7,0-0.9-0.4L12,9.4
			C11.8,9,11.4,8.9,11.1,9c-0.4,0.2-0.5,0.6-0.4,0.9l0.6,1.4c0.1,0.3,0,0.7-0.4,0.9s-0.7,0-0.9-0.4l-0.6-1.4L7.6,6.1
			C7.4,5.8,7,5.6,6.6,5.8C6.3,5.9,6.1,6.4,6.3,6.7l1.5,3.5c0,0,0,0,0,0.1l2.2,5L7.2,14c-0.4-0.2-0.9,0-1.1,0.4s0,0.9,0.4,1.1
			l5.8,2.7c0.1,0,0.1,0,0.2,0c1.3,0.7,2.8,0.8,4.2,0.2c2.5-1.1,3.6-3.9,2.5-6.4l0,0l-2.1-4.7C17,6.9,16.6,6.7,16.2,6.9z"/>
	</g>
</g>
</svg>
