<?xml version="1.0" encoding="utf-8"?>
<!-- Generator: Adobe Illustrator 25.0.0, SVG Export Plug-In . SVG Version: 6.00 Build 0)  -->
<svg version="1.1" id="Layer_1" xmlns="http://www.w3.org/2000/svg" xmlns:xlink="http://www.w3.org/1999/xlink" x="0px" y="0px"
	 viewBox="0 0 48 48" style="enable-background:new 0 0 48 48;" xml:space="preserve">
<style type="text/css">
	.st0{fill:#DBD8DD;}
	.st1{fill:#575C6D;}
	.st2{fill:#414451;}
	.st3{fill:#6CB1EC;}
	.st4{fill:#469DE6;}
</style>
<g>
	<path class="st0" d="M44.2,11H31.3c0-0.1,0-0.2-0.1-0.3l-2.1-3.9c-0.1-0.2-0.3-0.3-0.5-0.3h-8.9c-0.2,0-0.4,0.1-0.5,0.3l-2.4,3.9
		c-0.1,0.1-0.1,0.2-0.1,0.3h-4.2c0,0,0,0,0,0V9.6C12.6,9.3,12.3,9,12,9H5.3C4.9,9,4.7,9.3,4.7,9.6V11c0,0,0,0,0,0H3.9
		c-1.7,0-3,1.3-3,2.9v24.3c0,1.6,1.4,2.9,3,2.9h40.3c1.7,0,3-1.3,3-2.9V13.9C47.2,12.3,45.9,11,44.2,11z M24,35.8
		c-5.5,0-9.9-4.3-9.9-9.6s4.4-9.6,9.9-9.6s9.9,4.3,9.9,9.6S29.5,35.8,24,35.8z M43.1,14.5c0,0.7-0.6,1.3-1.4,1.3h-4.1
		c-0.8,0-1.4-0.6-1.4-1.3v0c0-0.7,0.6-1.3,1.4-1.3h4.1C42.5,13.2,43.1,13.8,43.1,14.5L43.1,14.5z"/>
</g>
<rect x="1" y="18.5" class="st1" width="45.9" height="15.6"/>
<ellipse class="st2" cx="24" cy="26.2" rx="9.9" ry="9.6"/>
<ellipse class="st3" cx="24" cy="26.2" rx="6.6" ry="6.4"/>
<ellipse class="st4" cx="24" cy="26.2" rx="4" ry="3.9"/>
</svg>
