<?xml version="1.0" encoding="utf-8"?>
<!-- Generator: Adobe Illustrator 25.4.1, SVG Export Plug-In . SVG Version: 6.00 Build 0)  -->
<svg version="1.1" id="Layer_1" xmlns="http://www.w3.org/2000/svg" xmlns:xlink="http://www.w3.org/1999/xlink" x="0px" y="0px"
	 viewBox="0 0 21 21" style="enable-background:new 0 0 21 21;" xml:space="preserve">
<style type="text/css">
	.st0{fill:#59B4D9;}
	.st1{fill:#5D6D7E;}
</style>
<g id="templates">
	<g>
		<path class="st0" d="M8.9,9.2H4.7c-0.6,0-1,0.4-1,1v6.1c0,0.6,0.4,1,1,1h4.2c0.6,0,1-0.4,1-1v-6.1C9.9,9.7,9.4,9.2,8.9,9.2z
			 M8.9,16.3H4.7v-6.1h4.2V16.3z"/>
		<path class="st0" d="M16.3,3.7H4.7c-0.6,0-1,0.4-1,1v2.4c0,0.6,0.4,1,1,1h11.6c0.6,0,1-0.4,1-1V4.7C17.3,4.1,16.8,3.7,16.3,3.7z
			 M16.3,7.1H4.7V4.7h11.6V7.1z"/>
		<path class="st0" d="M16.4,9.3h-4.2c-0.6,0-1,0.4-1,1v6.1c0,0.6,0.4,1,1,1h4.2c0.6,0,1-0.4,1-1v-6.1C17.4,9.7,17,9.3,16.4,9.3z
			 M16.4,16.3h-4.2v-6.1h4.2V16.3z"/>
	</g>
	<path class="st1" d="M20.4,3.3c0-1.6-1.2-2.8-2.8-2.8c-4.7,0-9.5,0-14.3,0c-0.3,0-0.5,0-0.8,0.1C1.4,1,0.6,2,0.6,3.3
		c0,4.8,0,9.5,0,14.3c0,0.1,0,0.3,0,0.5c0.2,1.3,1.3,2.3,2.8,2.3c4.8,0,9.5,0,14.2,0c0.2,0,0.4,0,0.6,0c1.3-0.2,2.3-1.3,2.3-2.8
		c0-2.3,0-4.7,0-7.1S20.5,5.7,20.4,3.3z M18.7,17.6c0,0.2-0.1,0.4-0.2,0.5c0,0.1-0.1,0.1-0.1,0.1l0,0c0,0,0,0-0.1,0.1
		c0,0,0,0-0.1,0.1c-0.1,0-0.1,0.1-0.2,0.1c0,0,0,0-0.1,0s-0.2,0.1-0.3,0.1l0,0l0,0H3.4l0,0l0,0c-0.3,0-0.5-0.1-0.7-0.3
		c0,0,0,0,0-0.1c0,0,0,0,0-0.1c-0.1-0.2-0.2-0.4-0.2-0.6V3.3c0-0.6,0.5-1,1-1h14.3c0.6,0,1,0.5,1,1L18.7,17.6L18.7,17.6z"/>
</g>
</svg>
