<?xml version="1.0" encoding="utf-8"?>
<!-- Generator: Adobe Illustrator 25.3.1, SVG Export Plug-In . SVG Version: 6.00 Build 0)  -->
<svg version="1.1" id="Layer_18" xmlns="http://www.w3.org/2000/svg" xmlns:xlink="http://www.w3.org/1999/xlink" x="0px" y="0px"
	 viewBox="0 0 21 21" style="enable-background:new 0 0 21 21;" xml:space="preserve">
<style type="text/css">
	.st0{fill:#FFDC73;}
</style>
<path class="st0" d="M20.6,8.6c0-1.3-0.6-2.8-1.8-4.3C16.1,1,12.5-0.2,8.4,0.6C3,1.8-0.4,7,0.6,12.5c0.9,4.7,5,8.1,9.8,8.2
	c0.8,0,1.4-0.3,1.7-1c0.3-0.7,0.2-1.3-0.2-1.8c-0.6-0.7-0.6-1.4-0.2-2.1c0.3-0.6,0.9-0.8,1.5-0.8s1.1,0,1.8,0c0.5,0,1,0,1.5-0.1
	C19,14.2,20.8,12,20.6,8.6z M4.1,10.9c-0.9,0-1.7-0.8-1.7-1.7c0-0.9,0.8-1.7,1.7-1.7s1.7,0.8,1.7,1.7C5.8,10.1,5,10.9,4.1,10.9z
	 M7.5,6.3c-0.9,0-1.7-0.8-1.7-1.7s0.8-1.7,1.7-1.7s1.7,0.8,1.7,1.7C9.1,5.5,8.4,6.3,7.5,6.3z M14.8,4.7c0,0.9-0.8,1.7-1.7,1.7
	s-1.7-0.8-1.6-1.7c0-0.9,0.8-1.7,1.7-1.7C14,3,14.8,3.8,14.8,4.7z M16.5,10.9c-0.9,0-1.7-0.8-1.7-1.7c0-0.9,0.8-1.7,1.7-1.7
	c0.9,0,1.7,0.8,1.7,1.7C18.2,10.1,17.4,10.9,16.5,10.9z"/>
</svg>
