<?xml version="1.0" encoding="utf-8"?>
<!-- Generator: Adobe Illustrator 25.4.1, SVG Export Plug-In . SVG Version: 6.00 Build 0)  -->
<svg version="1.1" xmlns="http://www.w3.org/2000/svg" xmlns:xlink="http://www.w3.org/1999/xlink" x="0px" y="0px"
	 viewBox="0 0 21 21" style="enable-background:new 0 0 21 21;" xml:space="preserve">
<style type="text/css">
	.st0{display:none;}
	.st1{display:inline;}
	.st2{fill:#5FC58D;}
	.st3{fill:#59B4D9;}
	.st4{fill:#EF959D;}
	.st5{fill:#17BEBB;}
	.st6{fill:#3989C7;}
	.st7{fill:#EDB458;}
	.st8{fill:#FFFFFF;}
	.st9{fill:#F26A8D;}
	.st10{fill:#E5658A;}
	.st11{fill:#67AFE6;}
	.st12{fill:#E0B049;}
	.st13{fill:#55BFF1;}
	.st14{fill:#6AB72E;}
	.st15{fill:#FCAE30;}
	.st16{fill:#7A8785;}
	.st17{display:inline;fill:#99D19C;}
	.st18{display:inline;fill:#EDB458;}
	.st19{display:inline;fill:#B8EDFF;stroke:#E0D8C4;stroke-miterlimit:10;}
	.st20{display:inline;fill:#76C1ED;}
	.st21{display:inline;fill:#FFCB59;}
	.st22{display:inline;fill:#999FD1;}
	.st23{display:inline;fill:#79CCC7;}
	.st24{display:inline;fill:none;stroke:#A7ADBA;stroke-miterlimit:10;}
	.st25{fill:#BAAEA0;}
	.st26{fill:#7FD0FF;}
	.st27{display:inline;fill:#6FD2C3;}
	.st28{display:inline;fill:#52A9CF;}
	.st29{display:inline;fill:#ED6764;}
	.st30{display:inline;fill:#AAB5BD;}
	.st31{display:inline;fill:#FFD160;}
	.st32{fill:#DBD8DD;}
	.st33{display:inline;fill:#575C6D;}
	.st34{display:inline;fill:#414451;}
	.st35{display:inline;fill:#6CB1EC;}
	.st36{display:inline;fill:#469DE6;}
	.st37{display:inline;fill:#EBB84C;}
	.st38{display:inline;fill:#F2D06B;}
	.st39{display:inline;fill:none;}
	.st40{display:inline;fill:#F26A8D;}
	.st41{display:inline;fill:#E0A93E;}
	.st42{display:inline;fill:#5FC58D;}
	.st43{display:inline;fill:#59B4D9;}
	.st44{display:inline;fill:#FFDC73;}
	.st45{fill:#FFCF70;}
	.st46{fill:#99D19C;}
	.st47{fill:#50BAD3;}
	.st48{display:inline;fill:#4995CC;}
	.st49{display:inline;fill:#5D6D7E;}
	.st50{fill:#5D6D7E;}
</style>
<g id="charts_1_" class="st0">
	<g id="charts" class="st1">
		<g>
			<path class="st2" d="M10,1.5c-5.2,0-9.4,4.2-9.4,9.4s4.2,9.4,9.4,9.4s9.4-4.2,9.4-9.4H10V1.5z"/>
			<path class="st3" d="M10.9,0.6V10l6.6-6.6C15.8,1.7,13.4,0.6,10.9,0.6z"/>
			<path class="st4" d="M17.5,3.4L10.9,10h9.4C20.2,7.4,19.2,5.1,17.5,3.4z"/>
		</g>
	</g>
</g>
<g id="infoart_1_" class="st0">
	<g id="infoart" class="st1">
		<polygon class="st5" points="8.4,5.1 7.2,3.5 6.1,2 6.1,2 6.1,2 6.1,2 6.1,2 0.6,2 0.6,20.1 6.1,20.1 6.1,8.2 7.2,6.7 		"/>
		<polygon class="st6" points="13.3,3.5 12.1,2 12.1,2 12.1,2 12.1,2 12.1,2 7,2 7,2 8.1,3.5 9.3,5.1 8.1,6.7 7,8.2 7,20.1 
			12.1,20.1 12.1,8.2 13.3,6.7 14.4,5.1 		"/>
		<polygon class="st7" points="19.3,3.5 18.2,2 18.2,2 18.2,2 18.1,2 18.1,2 13,2 13,2 14.1,3.5 15.3,5.1 14.1,6.7 13,8.2 13,20.1 
			18.2,20.1 18.2,8.2 19.3,6.7 20.4,5.1 		"/>
		<g>
			<path class="st8" d="M3.1,14.5h1v4.9H3v-3.1H2.2v-0.8h0.2c0.2,0,0.4,0,0.6-0.2c0.1-0.1,0.2-0.3,0.2-0.6L3.1,14.5L3.1,14.5z"/>
		</g>
		<g>
			<path class="st8" d="M8.3,14.7c0.4-0.2,0.8-0.3,1.2-0.3c0.5,0,0.8,0.1,1.1,0.4c0.3,0.3,0.4,0.6,0.4,1c0,0.3-0.1,0.6-0.2,0.8
				c-0.2,0.2-0.4,0.5-0.9,0.9c-0.3,0.3-0.5,0.4-0.6,0.6c-0.1,0.1-0.1,0.3-0.1,0.4h1.9v0.9H8.1v-0.6c0-0.5,0.1-0.8,0.2-1.1
				s0.5-0.6,1-1.1c0.2-0.2,0.4-0.4,0.5-0.4c0.1-0.1,0.1-0.2,0.1-0.3c0-0.1,0-0.3-0.2-0.4c-0.1-0.1-0.3-0.1-0.4-0.1
				c-0.3,0-0.6,0.1-0.9,0.4C8.3,15.8,8.3,14.7,8.3,14.7z"/>
		</g>
		<g>
			<path class="st8" d="M14.3,14.6c0.4-0.2,0.8-0.3,1.2-0.3c0.3,0,0.5,0,0.7,0.1s0.4,0.2,0.6,0.4c0.1,0.2,0.2,0.4,0.2,0.7
				c0,0.3-0.1,0.5-0.2,0.7c-0.1,0.2-0.4,0.4-0.6,0.5c0.4,0,0.6,0.2,0.8,0.4c0.2,0.2,0.3,0.4,0.3,0.8c0,0.4-0.2,0.8-0.5,1.1
				c-0.3,0.3-0.7,0.4-1.3,0.4c-0.4,0-0.7-0.1-1.2-0.3V18c0.4,0.3,0.7,0.4,1,0.4c0.2,0,0.4,0,0.5-0.2c0.1-0.1,0.2-0.3,0.2-0.5
				c0-0.2-0.1-0.3-0.2-0.4c-0.1-0.1-0.3-0.2-0.5-0.2h-0.5v-0.9h0.4c0.2,0,0.4,0,0.5-0.1c0.1-0.1,0.2-0.2,0.2-0.4
				c0-0.1,0-0.3-0.2-0.4c-0.1-0.1-0.3-0.1-0.4-0.1c-0.3,0-0.6,0.1-0.9,0.4L14.3,14.6z"/>
		</g>
	</g>
</g>
<g id="maps_1_" class="st0">
	<g id="maps" class="st1">
		<path class="st9" d="M10.6,0.6c-3.7,0-6.6,3-6.6,6.6s5.3,13.1,6.6,13.1c1.5,0,6.6-9.5,6.6-13.1S14.3,0.6,10.6,0.6z M10.6,10.5
			c-1.8,0-3.3-1.5-3.3-3.3c0-1.8,1.5-3.3,3.3-3.3c1.8,0,3.3,1.5,3.3,3.3C13.9,9,12.4,10.5,10.6,10.5z"/>
		<path class="st10" d="M13.9,7.2c0,1.8-1.5,3.3-3.3,3.3v9.9c1.5,0,6.6-9.5,6.6-13.1s-3-6.6-6.6-6.6v3.2C12.4,3.9,13.9,5.3,13.9,7.2
			L13.9,7.2z"/>
	</g>
</g>
<g id="blocks_1_" class="st0">
	<g class="st1">
		<g>
			<path class="st2" d="M14.5,11.2L6.3,8C6,7.9,5.9,7.6,5.9,7.3L7.6,3c0.1-0.3,0.4-0.4,0.7-0.3l8.3,3.2c0.3,0.1,0.4,0.4,0.3,0.7
				l-1.7,4.4C15.1,11.2,14.8,11.3,14.5,11.2z"/>
			<path class="st2" d="M11.6,3.2l-2-0.8c-0.1,0-0.2-0.2-0.1-0.3l0.4-0.9c0-0.1,0.2-0.1,0.3-0.1l2.1,0.8c0.1,0,0.2,0.2,0.1,0.3
				l-0.4,0.9C11.8,3.2,11.7,3.2,11.6,3.2z"/>
			<path class="st2" d="M15.9,4.9l-2.1-0.8c-0.1,0-0.2-0.2-0.1-0.3L14,2.9c0-0.1,0.2-0.2,0.3-0.1l2.1,0.8c0.1,0,0.2,0.2,0.1,0.3
				l-0.4,0.9C16.2,4.9,16,4.9,15.9,4.9z"/>
		</g>
		<g>
			<path class="st11" d="M9.7,17.5H0.8c-0.3,0-0.5-0.2-0.5-0.5v-4.7c0-0.3,0.2-0.5,0.5-0.5h8.9c0.3,0,0.5,0.2,0.5,0.5V17
				C10.2,17.3,10,17.5,9.7,17.5z"/>
			<path class="st11" d="M4.1,11.1H1.9c-0.1,0-0.2-0.1-0.2-0.2v-1c0-0.1,0.1-0.2,0.2-0.2h2.2c0.1,0,0.2,0.1,0.2,0.2v1
				C4.3,11,4.2,11.1,4.1,11.1z"/>
			<path class="st11" d="M8.7,11.1H6.5c-0.1,0-0.2-0.1-0.2-0.2v-1c0-0.1,0.1-0.2,0.2-0.2h2.2c0.1,0,0.2,0.1,0.2,0.2v1
				C8.9,11,8.8,11.1,8.7,11.1z"/>
		</g>
		<g>
			<path class="st12" d="M20.1,17.5h-8.9c-0.3,0-0.5-0.2-0.5-0.5v-4.7c0-0.3,0.2-0.5,0.5-0.5h8.9c0.3,0,0.5,0.2,0.5,0.5V17
				C20.6,17.3,20.4,17.5,20.1,17.5z"/>
			<path class="st12" d="M19.1,11.1h-2.2c-0.1,0-0.2-0.1-0.2-0.2v-1c0-0.1,0.1-0.2,0.2-0.2h2.2c0.1,0,0.2,0.1,0.2,0.2v1
				C19.3,11,19.2,11.1,19.1,11.1z"/>
		</g>
	</g>
</g>
<g id="quotes" class="st0">
	<g id="quote" class="st1">
		<path class="st2" d="M0.4,19.9c0.3-0.8,0.7-1.5,0.9-2.2C1.6,16.8,1.9,15.9,2,15c0-0.2,0-0.4-0.2-0.7C0.6,12.7,0.2,11,0.4,9.1
			c0.2-1.9,1-3.5,2.5-4.8c2.2-2,4.9-2.9,7.9-2.8c2.5,0,4.8,0.9,6.8,2.5C19,5.3,20,6.9,20.2,8.9c0.2,1.9-0.2,3.7-1.3,5.2
			c-1.6,2.3-3.9,3.5-6.6,4c-1.7,0.3-3.4,0.1-5.1-0.2c-0.1,0-0.2,0-0.3,0c-1.6,0.8-3.3,1.3-5,1.7C1.4,19.7,0.9,19.8,0.4,19.9z
			 M3.5,17.3c0,0,0.1,0,0.2,0c1-0.3,2-0.8,3-1.3c0.1-0.1,0.3-0.1,0.5,0c1.9,0.5,3.8,0.6,5.7,0.1c2.2-0.6,4-1.7,5-3.9
			c0.7-1.6,0.7-3.1-0.1-4.6c-0.8-1.7-2.3-2.7-4-3.4C12,3.4,10.2,3.2,8.3,3.6c-2.1,0.5-4,1.4-5.1,3.3c-1,1.5-1.2,3.2-0.5,4.9
			c0.3,0.8,0.8,1.5,1.4,2.1c0.1,0.1,0.2,0.2,0.1,0.4C4,15.3,3.8,16.3,3.5,17.3z"/>
		<path class="st11" d="M6.3,10.8c0-0.1,0-0.1,0-0.2c0-1,0-2.1,0-3.1c1.2,0,2.3,0,3.5,0c0,0.3,0,0.6,0,0.9c0,0.8,0.1,1.6-0.1,2.4
			c-0.4,1.4-1.4,2.2-2.7,2.5c-0.1,0-0.2,0-0.3-0.1c0-0.2-0.1-0.4-0.2-0.6c0.8-0.4,1.3-0.9,1.4-1.8C7.2,10.8,6.8,10.8,6.3,10.8z"/>
		<path class="st11" d="M11.1,10.8c0-1.1,0-2.2,0-3.3c1.1,0,2.3,0,3.4,0l0,0c0,1.1,0.1,2.2-0.1,3.3c-0.3,1.4-1.5,2.3-2.8,2.5
			c0,0-0.2,0-0.2-0.1c-0.1-0.2-0.2-0.4-0.3-0.6c0.8-0.3,1.3-0.9,1.4-1.8C12.1,10.8,11.6,10.8,11.1,10.8z"/>
	</g>
</g>
<g id="shapes" class="st0">
	<g class="st1">
		<rect x="2.7" y="1.9" class="st8" width="10.2" height="11.3"/>
		<rect x="3.5" y="2.7" class="st13" width="8.7" height="8.7"/>
		<polygon class="st8" points="13.7,4.1 17.1,9.8 20.5,15.4 13.7,15.4 7,15.4 10.4,9.8 		"/>
		<polygon class="st14" points="13.7,5.4 16.4,10.1 19.1,14.8 13.7,14.8 8.3,14.8 11,10.1 		"/>
		<circle class="st8" cx="6.2" cy="13.2" r="5.7"/>
		<circle class="st15" cx="6.2" cy="13.2" r="4.9"/>
	</g>
</g>
<g id="photos" class="st0">
	<g id="background" class="st1">
		<path class="st16" d="M0.5,0.4c0,6.6,0,13.4,0,20.1c6.6,0,13.4,0,20.1,0c0-6.7,0-13.4,0-20.1C13.8,0.4,7.1,0.4,0.5,0.4z M1.5,19.4
			c0-0.8,0-1.7,0-2.5c0-0.1,0.1-0.3,0.2-0.4c1-1,2-2,2.9-2.9c0.4-0.5,0.8-0.9,1.2-1.3c2.4,2.4,4.8,4.8,7.2,7.2
			C9.3,19.4,5.5,19.4,1.5,19.4z M19.4,19.4c-0.1,0-0.1,0-0.2,0c-1.4,0-2.7,0-4.1,0c-0.1,0-0.2-0.1-0.3-0.2c-2.4-2.4-4.8-4.8-7.3-7.3
			c-0.5-0.5-1-1-1.5-1.5c-1.5,1.6-2.9,3-4.4,4.4c0-4.4,0-8.8,0-13.3c5.9,0,11.9,0,18,0C19.5,7.5,19.5,13.4,19.4,19.4z"/>
		<path class="st16" d="M13.1,2.5C11.2,2.6,9.8,4.1,9.8,6s1.4,3.3,3.3,3.3S16.6,8,16.6,6C16.6,4.1,15.1,2.5,13.1,2.5z"/>
	</g>
	<path class="st17" d="M1.5,19.4c0-0.8,0-1.7,0-2.5c0-0.1,0.1-0.3,0.2-0.4c1-1,2-2,2.9-2.9c0.4-0.5,0.8-0.9,1.2-1.3
		c2.4,2.4,4.8,4.8,7.2,7.2C9.3,19.4,5.5,19.4,1.5,19.4z"/>
	<path class="st18" d="M13.1,8.3c-1.2,0-2.2-1-2.2-2.2s1-2.2,2.2-2.2c1.2,0,2.2,1,2.2,2.2C15.4,7.3,14.4,8.3,13.1,8.3z"/>
</g>
<g id="frames" class="st0">
	<polygon class="st19" points="10.5,1.8 13.4,7.6 19.7,8.5 15.1,13 16.2,19.4 10.5,16.4 4.8,19.4 5.9,13 1.3,8.5 7.7,7.6 	"/>
	<path class="st18" d="M12.7,10.8c-0.9,0-1.6-0.7-1.6-1.6s0.7-1.6,1.6-1.6s1.6,0.7,1.6,1.6C14.4,10.1,13.6,10.8,12.7,10.8z"/>
	<path class="st17" d="M8.5,11.7c-0.4,0.4-0.9,0.8-1.3,1.4c-0.5,0.5-1,1-1.6,1.6l-0.8,4.7c0,0,0.1,0,0.1,0l5.6-3l5.6,2.9
		C13.6,16.8,11,14.2,8.5,11.7z"/>
</g>
<g id="Layer_13" class="st0">
	<rect x="7.7" y="0.7" class="st20" width="5.4" height="5.4"/>
	<polygon class="st21" points="3.5,15.3 0.5,20.5 6.6,20.5 	"/>
	<circle class="st22" cx="10.5" cy="17.9" r="2.7"/>
	<polygon class="st23" points="19.1,15.2 16,15.2 14.5,17.9 16,20.6 19.1,20.6 20.7,17.9 	"/>
	<line class="st24" x1="10.5" y1="7.3" x2="10.5" y2="13.8"/>
	<polyline class="st24" points="3.5,13.9 3.5,10.7 17.3,10.7 17.3,13.9 	"/>
</g>
<g id="arworks" class="st0">
	<g class="st1">
		<path class="st25" d="M14.7,18.7c0.1,0,0.2,0,0.3,0c0.5,0,0.8,0.4,0.8,0.9c0,0.5-0.4,0.8-0.9,0.8c-1.8,0-3.7,0-5.5,0
			c-0.9,0-1.8,0-2.7,0c-0.6,0-0.9-0.3-1-0.8c0-0.5,0.4-0.8,0.9-0.9c0.1,0,0.1,0,0.2,0c-0.1-0.7-0.4-1.3-0.7-1.9
			c-0.3-0.5-0.2-1,0.1-1.5c1.3-2.1,2.6-4.2,3.9-6.4c0.4-0.7,1.1-0.6,1.5,0c1.3,2.1,2.7,4.4,4.1,6.4c0.2,0.4,0.3,0.7,0.1,1.1
			c-0.3,0.6-0.6,1.1-0.9,1.7C14.9,18.5,14.7,18.6,14.7,18.7z M10,12.3C9.9,12.4,9.9,12.4,10,12.3c-0.8,1.3-1.6,2.4-2.3,3.6
			c0,0.1,0,0.2,0,0.3c0.3,0.7,0.7,1.4,1,2.1c0.1,0.1,0.1,0.2,0.3,0.2c1.2,0,2.4,0,3.6,0c0.1,0,0.2-0.1,0.3-0.2
			c0.4-0.7,0.7-1.4,1.1-2.1c0.1-0.1,0.1-0.2,0-0.4c-0.7-1.1-1.4-2.3-2.1-3.4c0,0-0.1-0.1-0.1-0.2c0,0.7,0,1.4,0,2
			c0,0.5-0.4,0.9-0.8,0.9c-0.5,0-0.8-0.4-0.8-0.9C10,13.8,10,13.2,10,12.3z"/>
		<g>
			<path class="st6" d="M12.7,3.1v1.7c2.4,0.7,4.4,2.6,5.1,5.1h1.7C18.8,6.5,16.1,3.9,12.7,3.1z"/>
			<path class="st6" d="M1.7,9.8h1.7c0.7-2.5,2.7-4.4,5.4-5.1V3.1C5.2,3.8,2.5,6.4,1.7,9.8z"/>
			<path class="st26" d="M12.7,1.4H8.7v1.7v1.7v0.5h4.1V4.8V3.1L12.7,1.4z M12,3v1.6h-0.1H9.5l0,0V3V2.1H12L12,3L12,3z"/>
			<path class="st26" d="M19.6,9.8h-1.7h-0.6v3.4h3.3V9.9L19.6,9.8L19.6,9.8z M20.1,12.6H18v-2.1h0.1h1.6h0.4L20.1,12.6z"/>
			<path class="st26" d="M0.5,9.8v3.4h3.3V9.9H3.5H1.7L0.5,9.8L0.5,9.8z M3.3,10.4v2.1H1.1v-2.1h0.4H3.3L3.3,10.4z"/>
		</g>
	</g>
</g>
<g id="text_1_" class="st0">
	<g id="text" class="st1">
		<g>
			<path class="st16" d="M2.2,0.7h16.8l0.2,5h-0.7C18,4.1,17.6,3.1,17,2.6c-0.6-0.5-1.7-0.7-3.4-0.7h-1.6v15.2
				c0,1.1,0.2,1.8,0.6,2.1c0.4,0.3,1.1,0.5,2.3,0.6v0.5H6.3v-0.6c1.3-0.1,2-0.3,2.3-0.6s0.5-1.1,0.5-2.4V1.9H7.4
				C5.8,1.9,4.7,2.1,4,2.6C3.4,3.1,3,4.1,2.7,5.7H2L2.2,0.7z"/>
		</g>
	</g>
</g>
<g id="layouts" class="st0">
	<g id="layout" class="st1">
		<path class="st25" d="M20.2,10.5c0,2.4,0,4.8,0,7.1c0,1.4-1,2.6-2.3,2.8c-0.2,0-0.4,0-0.6,0c-4.7,0-9.5,0-14.2,0
			c-1.4,0-2.6-1-2.8-2.3c0-0.2,0-0.3,0-0.5c0-4.8,0-9.5,0-14.3c0-1.3,0.8-2.3,2-2.7c0.3-0.1,0.5-0.1,0.8-0.1c4.8,0,9.5,0,14.3,0
			c1.6,0,2.8,1.2,2.8,2.8C20.2,5.7,20.2,8.1,20.2,10.5z M8.5,18.6c0.1,0,0.2,0,0.3,0c2.9,0,5.7,0,8.6,0c0.7,0,1.1-0.3,1.1-1.1
			c0-3.2,0-6.3,0-9.5c0-0.1,0-0.2,0-0.3c-3.3,0-6.6,0-9.9,0C8.5,11.4,8.5,14.9,8.5,18.6z M18.4,5.9c0-0.1,0-0.2,0-0.3
			c0-0.8,0-1.6,0-2.3c0-0.7-0.4-1-1-1c-4.7,0-9.5,0-14.2,0c-0.7,0-1,0.3-1,1c0,0.8,0,1.6,0,2.3c0,0.1,0,0.2,0,0.3
			C7.6,5.9,13,5.9,18.4,5.9z M2.1,7.7c0,0.1,0,0.2,0,0.3c0,3.2,0,6.3,0,9.5c0,0.7,0.3,1.1,1.1,1.1c1,0,2.1,0,3.2,0
			c0.1,0,0.2,0,0.3,0c0-3.6,0-7.2,0-10.8C5.1,7.7,3.7,7.7,2.1,7.7z"/>
	</g>
</g>
<g id="infocharts" class="st0">
	<path class="st27" d="M14.8,5.5l2.3-2.3L16.8,3c-1.7-1.5-3.9-2.2-6.1-2.2S6.3,1.5,4.5,3.1L4.2,3.2l2.3,2.3C7.7,4.5,9.2,4,10.7,4
		C12.2,4,13.7,4.5,14.8,5.5z"/>
	<path class="st28" d="M18.3,4.4l-0.2-0.3l-2.3,2.3c1,1.1,1.5,2.6,1.5,4.2c0,3.4-2.6,6.2-5.9,6.5v3.3h0.4c5-0.6,8.8-4.7,8.8-9.7
		C20.4,8.3,19.7,6.1,18.3,4.4z"/>
	<path class="st29" d="M4.1,10.6c0-1.6,0.6-3,1.5-4.2L3.3,4.2L3,4.4c-1.4,1.7-2.1,3.9-2.1,6.1c0,5,3.7,9.2,8.8,9.7H10V17
		C6.6,16.7,4.1,13.9,4.1,10.6z"/>
	<rect x="7.2" y="6.8" class="st30" width="7.2" height="0.7"/>
	<rect x="7.2" y="10.2" class="st30" width="7.2" height="0.7"/>
	<rect x="7.2" y="13.7" class="st30" width="7.2" height="0.7"/>
	<path class="st31" d="M9.1,8.5L9.1,8.5c-0.3,0-0.6-0.3-0.6-0.6V6.4c0-0.3,0.3-0.6,0.6-0.6l0,0c0.3,0,0.6,0.3,0.6,0.6v1.5
		C9.7,8.2,9.4,8.5,9.1,8.5z"/>
	<path class="st31" d="M12.2,11.9L12.2,11.9c-0.3,0-0.6-0.3-0.6-0.6V9.8c0-0.3,0.3-0.6,0.6-0.6l0,0c0.3,0,0.6,0.3,0.6,0.6v1.5
		C12.8,11.6,12.5,11.9,12.2,11.9z"/>
	<path class="st31" d="M10.1,15.3L10.1,15.3c-0.3,0-0.6-0.3-0.6-0.6v-1.5c0-0.3,0.3-0.6,0.6-0.6l0,0c0.3,0,0.6,0.3,0.6,0.6v1.5
		C10.7,15.1,10.4,15.3,10.1,15.3z"/>
</g>
<g id="camera" class="st0">
	<g class="st1">
		<path class="st32" d="M19.1,4.9h-5.4c0,0,0-0.1,0-0.1l-0.8-1.6C12.8,3,12.7,3,12.6,3H9C8.9,3,8.8,3,8.8,3.1l-1,1.6
			c0,0,0,0.1,0,0.1H6c0,0,0,0,0,0V4.3C6,4.1,5.9,4,5.7,4H3C2.8,4,2.7,4.1,2.7,4.3v0.6c0,0,0,0,0,0H2.4c-0.7,0-1.2,0.5-1.2,1.2v10.1
			c0,0.7,0.6,1.2,1.2,1.2h16.7c0.7,0,1.2-0.5,1.2-1.2V6.1C20.3,5.4,19.8,4.9,19.1,4.9z M10.7,15.1c-2.3,0-4.1-1.8-4.1-4s1.8-4,4.1-4
			s4.1,1.8,4.1,4S13,15.1,10.7,15.1z M18.6,6.3c0,0.3-0.3,0.5-0.6,0.5h-1.7c-0.3,0-0.6-0.2-0.6-0.5v0c0-0.3,0.3-0.5,0.6-0.5h1.7
			C18.4,5.8,18.6,6,18.6,6.3L18.6,6.3z"/>
	</g>
	<rect x="1.2" y="7.9" class="st33" width="19" height="6.4"/>
	<ellipse class="st34" cx="10.7" cy="11.2" rx="4.1" ry="4"/>
	<ellipse class="st35" cx="10.7" cy="11.2" rx="2.8" ry="2.7"/>
	<ellipse class="st36" cx="10.7" cy="11.2" rx="1.7" ry="1.6"/>
</g>
<g id="Layer_15" class="st0">
	<path class="st37" d="M1.6,0.8C1.3,0.8,1,1.1,1,1.4v18.4c0,0.3,0.3,0.6,0.6,0.6H15l1.2-1.3l3.9-3.9v-0.1V14V1.4
		c0-0.3-0.3-0.6-0.6-0.6H1.6z M2.4,2.5h16.3V14h-4.9v4.7H2.4V2.5z"/>
	<path class="st37" d="M13.7,6.9H7.4C6.9,6.9,6.5,6.5,6.5,6v0c0-0.5,0.4-0.9,0.9-0.9h6.2c0.5,0,0.9,0.4,0.9,0.9v0
		C14.6,6.5,14.2,6.9,13.7,6.9z"/>
	<path class="st37" d="M13.7,10.2H7.4c-0.5,0-0.9-0.4-0.9-0.9v0c0-0.5,0.4-0.9,0.9-0.9h6.2c0.5,0,0.9,0.4,0.9,0.9v0
		C14.6,9.8,14.2,10.2,13.7,10.2z"/>
	<path class="st37" d="M10.6,13.4H7.4c-0.5,0-0.9-0.4-0.9-0.9v0c0-0.5,0.4-0.9,0.9-0.9h3.1c0.5,0,0.9,0.4,0.9,0.9v0
		C11.5,12.9,11.1,13.4,10.6,13.4z"/>
</g>
<g id="Layer_16" class="st0">
	<path class="st38" d="M17.1,2.8c0.5,0.2,1.1,0.4,1.6,0.7c0.6,0.4,0.8,1.1,0.8,1.8c0.2,2,0.3,3.9,0.5,5.9c0.2,1.8,0.3,3.5,0.5,5.3
		c0.1,1.3-0.8,2.5-2.1,2.6c-3.7,0.4-7.4,0.7-11.1,1c-1.4,0.1-2.5-0.8-2.6-2.3c0-0.2,0-0.4-0.1-0.6c-0.6,0-1.2-0.1-1.8-0.1
		c-1.4-0.1-2.3-1-2.2-2.4c0.2-4.1,0.3-8.2,0.5-12.3c0.1-1.3,1-2.2,2.4-2.2c3.5,0.1,6.9,0.3,10.4,0.5c0.3,0,0.7,0,1,0
		c1.2,0,1.9,0.7,2.2,1.8c0,0.1,0,0.2,0.1,0.2C17.1,2.9,17.1,2.9,17.1,2.8z M15.1,12.5c0.1-3.1,0.3-6.2,0.4-9.3
		c0-0.5-0.2-0.7-0.8-0.8C11,2.3,7.2,2.2,3.5,2C2.8,2,2.6,2.2,2.6,2.9c-0.2,3.9-0.4,7.8-0.5,11.7c0,0.8,0.1,1,0.9,1
		c1.8,0.1,3.7,0.2,5.5,0.2c0.9,0,1.9,0.1,2.9,0.1c0-0.8,0.1-1.6,0.1-2.4c0-1,0.3-1.2,1.2-1.1C13.4,12.5,14.2,12.5,15.1,12.5z
		 M6.2,17.4c-0.1,0.9,0.3,1.2,1,1.2c3.6-0.3,7.2-0.6,10.8-0.9c0.7-0.1,1-0.4,0.9-1.1c-0.2-2-0.4-4-0.5-6c-0.2-1.7-0.3-3.4-0.5-5.2
		c-0.1-0.6-0.4-0.8-0.9-0.7c0,0.1,0,0.3,0,0.4c-0.1,2.7-0.2,5.4-0.3,8.1c0,0.4-0.1,0.7-0.5,1c-1.1,1-2.3,2-3.4,3.1
		c-0.3,0.3-0.6,0.4-1.1,0.4c-1.5-0.1-3-0.1-4.5-0.2C6.9,17.4,6.5,17.4,6.2,17.4z"/>
	<path class="st38" d="M6.6,4.5c0,0.7-0.5,1.2-1.2,1.2c-0.7,0-1.2-0.5-1.2-1.2c0-0.6,0.5-1.1,1.2-1.2C6.1,3.3,6.6,3.8,6.6,4.5z"/>
</g>
<g id="Layer_17" class="st0">
	<g class="st1">
		<path class="st25" d="M10.5,4.3c-3.4,0-6.2,2.8-6.2,6.2c0,3.4,2.8,6.2,6.2,6.2s6.2-2.8,6.2-6.2C16.7,7.1,13.9,4.3,10.5,4.3z
			 M14.6,11l-1.2,0.4l-0.3,0.7l0.5,1l0.1,0.1l-0.7,0.7L12,13.3l-0.7,0.3l-0.3,1l-0.1,0.1h-1l-0.4-1.2l-0.7-0.3l-1,0.5l-0.1,0.1
			l-0.7-0.7l0.5-1.1l-0.3-0.7l-1-0.3L6.2,11v-1l1.2-0.4L7.7,9L7.2,8L7.1,7.9l0.7-0.7l1.1,0.5l0.7-0.3l0.3-1l0.1-0.1h1l0.4,1.2
			L12,7.8l1-0.5l0.1-0.1l0.7,0.7L13.2,9l0.3,0.7l1,0.3l0.1,0.1V11z"/>
		<path class="st25" d="M10.4,9.1C9.7,9.1,9,9.7,9,10.5c0,0.8,0.6,1.4,1.4,1.4c0.8,0,1.4-0.6,1.4-1.4C11.9,9.7,11.2,9.1,10.4,9.1z"
			/>
	</g>
	<path class="st39" d="M2.4,19.1h5.4v-3.1c-1-0.5-1.9-1.3-2.5-2.3H2.4V19.1z"/>
	<path class="st39" d="M2.4,2.3v5.4H5c0.6-1.2,1.6-2.2,2.8-2.8V2.3H2.4z"/>
	<path class="st39" d="M18.4,19.1v-5.4h-2.6c-0.7,1.1-1.6,1.9-2.8,2.4v3H18.4z"/>
	<path class="st39" d="M16,7.7h2.4V2.3H13v2.5C14.3,5.4,15.4,6.4,16,7.7z"/>
	<path class="st40" d="M2.4,7.7V2.3h5.4v2.6C8.1,4.7,8.5,4.6,9,4.5V1.1H1.2v7.8h3.3C4.6,8.5,4.8,8.1,5,7.7H2.4z"/>
	<path class="st41" d="M19.6,1.1h-7.8v3.3c0.4,0.1,0.8,0.2,1.2,0.4V2.3h5.4v5.4H16c0.2,0.4,0.4,0.8,0.5,1.2h3.1V1.1z"/>
	<path class="st42" d="M7.8,19.1H2.4v-5.4h2.8C5,13.4,4.8,13,4.6,12.6H1.2v7.8H9v-3.8c-0.4-0.1-0.8-0.3-1.2-0.4V19.1z"/>
	<path class="st43" d="M18.4,13.8v5.4H13v-3c-0.4,0.2-0.8,0.3-1.2,0.4v3.8h7.8v-7.8h-3.2c-0.2,0.4-0.3,0.8-0.6,1.2H18.4z"/>
</g>
<g id="Layer_18" class="st0">
	<path class="st44" d="M20.7,8.6c0-1.2-0.6-2.9-1.8-4.3c-2.7-3.3-6.3-4.5-10.5-3.7C2.9,1.7-0.5,6.9,0.5,12.5c0.9,4.7,5,8.1,9.8,8.2
		c0.8,0,1.4-0.3,1.7-1c0.3-0.6,0.2-1.3-0.2-1.8c-0.6-0.7-0.6-1.4-0.2-2c0.4-0.6,0.9-0.8,1.5-0.8c0.6,0,1.2,0,1.8,0
		c0.5,0,1,0,1.5-0.2C19,14.2,20.7,12,20.7,8.6z M4.1,10.8c-0.9,0-1.7-0.8-1.7-1.7c0-0.9,0.8-1.7,1.7-1.7c0.9,0,1.7,0.8,1.7,1.7
		C5.7,10,5,10.8,4.1,10.8z M7.5,6.3c-0.9,0-1.7-0.8-1.7-1.7c0-0.9,0.8-1.7,1.7-1.7c0.9,0,1.7,0.8,1.7,1.7C9.1,5.5,8.4,6.3,7.5,6.3z
		 M14.8,4.6c0,0.9-0.8,1.7-1.7,1.7c-0.9,0-1.7-0.8-1.7-1.7c0-0.9,0.8-1.7,1.8-1.7C14,2.9,14.8,3.8,14.8,4.6z M16.5,10.8
		c-0.9,0-1.7-0.8-1.7-1.7c0-0.9,0.8-1.7,1.7-1.7c0.9,0,1.7,0.8,1.7,1.7C18.2,10,17.4,10.8,16.5,10.8z"/>
</g>
<g id="collage_1_" class="st0">
	<g id="collage" class="st1">
		<path class="st4" d="M2.6,0.9h4.5v5H0.7V2.8C0.7,1.7,1.5,0.9,2.6,0.9z"/>
		<path class="st45" d="M8.6,0.9h9.7c1,0,1.9,0.8,1.9,1.9v3.1H8.6V0.9z"/>
		<path class="st46" d="M15.9,7h4.3v11.4c0,1-0.8,1.9-1.9,1.9h-2.4L15.9,7z"/>
		<g>
			<path class="st47" d="M7.6,11C6,11,4.9,12.3,5,13.9c0.1,1.2,1,2.2,2.1,2.4c1.8,0.4,3.3-0.9,3.3-2.6C10.3,12.2,9.1,11,7.6,11z"/>
			<path class="st47" d="M0.7,7v11.4c0,1,0.8,1.9,1.9,1.9h12V7H0.7z M7.8,17.8c-2.4,0.1-4.4-1.8-4.3-4.3c0.1-2.1,1.8-3.8,3.9-3.9
				c2.4-0.1,4.4,1.8,4.3,4.3C11.6,16,9.9,17.7,7.8,17.8z"/>
		</g>
	</g>
</g>
<g id="force" class="st0">
	<polygon class="st48" points="21,11.8 14.7,11.8 14.7,8.3 11,11.4 7.4,14.4 11,17.5 14.7,20.5 14.7,17 21,17 	"/>
	<polygon class="st43" points="10,4 6.3,1 6.3,4.4 0,4.4 0,9.6 6.3,9.6 6.3,13.1 10,10.1 13.6,7 	"/>
</g>
<g id="templates" class="st0">
	<g class="st1">
		<path class="st3" d="M8.9,9.2H4.7c-0.6,0-1,0.4-1,1v6.1c0,0.6,0.4,1,1,1h4.2c0.6,0,1-0.4,1-1v-6.1C9.9,9.7,9.4,9.2,8.9,9.2z
			 M8.9,16.3H4.7v-6.1h4.2V16.3z"/>
		<path class="st3" d="M16.3,3.7H4.7c-0.6,0-1,0.4-1,1v2.4c0,0.6,0.4,1,1,1h11.6c0.6,0,1-0.4,1-1V4.7C17.3,4.1,16.8,3.7,16.3,3.7z
			 M16.3,7.1H4.7V4.7h11.6V7.1z"/>
		<path class="st3" d="M16.4,9.3h-4.2c-0.6,0-1,0.4-1,1v6.1c0,0.6,0.4,1,1,1h4.2c0.6,0,1-0.4,1-1v-6.1C17.4,9.7,17,9.3,16.4,9.3z
			 M16.4,16.3h-4.2v-6.1h4.2V16.3z"/>
	</g>
	<path class="st49" d="M20.4,3.3c0-1.6-1.2-2.8-2.8-2.8c-4.7,0-9.5,0-14.3,0c-0.3,0-0.5,0-0.8,0.1C1.4,1,0.6,2,0.6,3.3
		c0,4.8,0,9.5,0,14.3c0,0.1,0,0.3,0,0.5c0.2,1.3,1.3,2.3,2.8,2.3c4.8,0,9.5,0,14.2,0c0.2,0,0.4,0,0.6,0c1.3-0.2,2.3-1.3,2.3-2.8
		c0-2.3,0-4.7,0-7.1S20.5,5.7,20.4,3.3z M18.7,17.6c0,0.2-0.1,0.4-0.2,0.5c0,0.1-0.1,0.1-0.1,0.1c0,0,0,0,0,0c0,0,0,0-0.1,0.1
		c0,0,0,0-0.1,0.1c-0.1,0-0.1,0.1-0.2,0.1c0,0,0,0-0.1,0c-0.1,0-0.2,0.1-0.3,0.1h0c0,0,0,0,0,0H3.4c0,0,0,0,0,0h0
		c-0.3,0-0.5-0.1-0.7-0.3c0,0,0,0,0-0.1c0,0,0,0,0-0.1c-0.1-0.2-0.2-0.4-0.2-0.6V3.3c0-0.6,0.5-1,1-1h14.3c0.6,0,1,0.5,1,1V17.6z"/>
</g>
<g id="Layer_22">
	<path class="st50" d="M0,11.5c0.6,3.3,3.1,5,6.5,4.7c0-0.4,0-0.8,0-1.3c-0.5,0-0.9,0-1.3,0c-1.8,0-3.3-1.2-3.8-2.9
		C1,10.3,1.7,8.5,3.2,7.5c0.1,0,0.2-0.1,0.2-0.1C3.8,7.2,4,6.9,3.9,6.5C3.8,4.9,5.5,3.7,7,4.6c0.3,0.2,0.6,0.3,0.9,0.4
		c0.2-0.4,0.5-0.8,0.7-1.2c1.1-1.8,3.1-2.6,5.1-2c2,0.6,3.4,2.3,3.4,4.4c0,0.6,0.1,1,0.7,1.4c1.5,0.9,2.2,2.7,1.8,4.3
		c-0.5,1.7-2,2.9-3.8,3c-0.4,0-0.8,0-1.3,0c0,0.4,0,0.8,0,1.2c3.3,0.6,6-1.5,6.5-4.5v-1.4c-0.1-0.4-0.2-0.7-0.2-1
		c-0.3-1.2-1-2.1-2-2.8c-0.2-0.2-0.3-0.3-0.3-0.6c-0.2-2.8-2-4.9-4.7-5.5C11.4,0,8.9,1,7.6,3C7.5,3.1,7.5,3.2,7.4,3.3
		C6.8,3.2,6.3,3,5.8,3C4,3.1,2.9,4.3,2.6,6c0,0.3-0.1,0.4-0.4,0.6c-1.3,0.9-2,2-2.3,3.6L0,11.5z"/>
	<polygon class="st2" points="15.4,12.3 10.5,5.9 5.6,12.3 8.7,12.3 8.7,20.6 12.2,20.6 12.2,12.3 	"/>
</g>
</svg>
