<?xml version="1.0" encoding="utf-8"?>
<!-- Generator: Adobe Illustrator 28.3.0, SVG Export Plug-In . SVG Version: 6.00 Build 0)  -->
<svg version="1.1" id="Layer_1" xmlns="http://www.w3.org/2000/svg" xmlns:xlink="http://www.w3.org/1999/xlink" x="0px" y="0px"
	 viewBox="0 0 185 50" style="enable-background:new 0 0 185 50;" xml:space="preserve">
<style type="text/css">
	.st0{fill:#FFB900;}
	.st1{fill:#404040;}
	.st2{fill:#C83333;}
	.st3{fill:#636363;}
</style>
<g>
	<path class="st0" d="M18.4,8.5l12.9,19.8c0.3,0.4,0.8,0.7,1.3,0.7h8.7c0.2,0,0.4-0.1,0.5-0.3l5-6.3c0.4-0.5,0-1.1-0.5-1.1h-9.9
		c-0.2,0-0.4-0.1-0.6-0.3l-2.7-3.6c-0.3-0.5,0-1.1,0.6-1.1H42c0.2,0,0.4-0.1,0.5-0.2L49,8.6c0.4-0.5,0.1-1.2-0.5-1.2H19
		C18.4,7.4,18.1,8,18.4,8.5z"/>
	<g>
		<path class="st0" d="M39.4,39.3h6.2c0.4,0,0.8-0.2,1.1-0.5l4.8-6.6c0.5-0.7,0-1.7-0.9-1.7h-6.8l0,0H33.7c-0.5,0-0.8,0.5-0.5,0.9
			l5,7.5C38.4,39.3,39,39.3,39.4,39.3z"/>
	</g>
	<circle class="st0" cx="18.8" cy="25.6" r="6.5"/>
	<path class="st0" d="M29.2,28.7c-0.2-0.3-0.7-0.2-0.8,0.1c-3.7,10.6-19.7,8.5-20-3.3c-0.1-6.1,5.5-11,11.5-10.2
		c0.3,0,0.4-0.2,0.3-0.5l-3.8-5.9c-0.2-0.3-0.5-0.4-0.8-0.3c-8,1.4-14,8.4-14,16.9C1.7,42.6,23.7,48.9,33,35c0.1-0.1,0.1-0.4,0-0.5
		L29.2,28.7z"/>
</g>
<g>
	<g>
		<g>
			<path class="st1" d="M56.6,26.1h1.9l3.8,10h-2l-0.8-2.1h-4.1l-0.8,2.1h-2L56.6,26.1z M57.5,28.8l-1.3,3.4h2.7L57.5,28.8z"/>
			<path class="st1" d="M63.5,28.7h1.9v0.8c0.4-0.4,0.8-0.6,1.1-0.7c0.3-0.1,0.7-0.2,1-0.2c0.7,0,1.4,0.3,1.9,0.8
				c0.4,0.4,0.6,1.1,0.6,1.9v4.9h-1.8v-3.2c0-0.9,0-1.5-0.1-1.8c-0.1-0.3-0.2-0.5-0.4-0.7c-0.2-0.2-0.4-0.2-0.7-0.2
				c-0.4,0-0.7,0.1-1,0.4c-0.3,0.3-0.5,0.6-0.6,1c-0.1,0.2-0.1,0.7-0.1,1.5v3h-1.9L63.5,28.7L63.5,28.7z"/>
			<path class="st1" d="M71.6,28.7h1.9v7.4h-1.9V28.7z"/>
			<path class="st1" d="M75,28.7h1.9v0.8c0.3-0.3,0.7-0.6,1.1-0.8c0.4-0.2,0.8-0.3,1.3-0.3c0.5,0,0.9,0.1,1.3,0.3
				c0.4,0.2,0.7,0.6,0.9,1c0.3-0.4,0.7-0.8,1.1-1c0.4-0.2,0.9-0.3,1.4-0.3c0.5,0,1,0.1,1.4,0.4c0.4,0.2,0.7,0.6,0.9,1
				c0.2,0.4,0.3,1,0.3,1.9v4.3h-1.9v-3.7c0-0.8-0.1-1.4-0.3-1.7c-0.2-0.3-0.5-0.4-0.9-0.4c-0.3,0-0.6,0.1-0.9,0.3
				c-0.3,0.2-0.4,0.4-0.6,0.8c-0.1,0.3-0.2,0.8-0.2,1.5v3.3h-1.9v-3.6c0-0.7,0-1.1-0.1-1.4c-0.1-0.3-0.2-0.5-0.4-0.7
				c-0.2-0.1-0.4-0.2-0.7-0.2c-0.3,0-0.6,0.1-0.8,0.3c-0.3,0.2-0.4,0.4-0.6,0.8c-0.1,0.3-0.2,0.9-0.2,1.6v3.3H75V28.7z"/>
			<path class="st1" d="M93.5,28.7h1.9v7.4h-1.9v-0.8c-0.4,0.3-0.7,0.6-1.1,0.7c-0.4,0.2-0.8,0.2-1.2,0.2c-1,0-1.8-0.4-2.5-1.1
				c-0.7-0.7-1-1.7-1-2.8c0-1.1,0.3-2.1,1-2.8c0.7-0.7,1.5-1.1,2.5-1.1c0.4,0,0.9,0.1,1.2,0.3c0.4,0.2,0.7,0.4,1.1,0.8V28.7z
				 M91.6,30.3c-0.6,0-1,0.2-1.4,0.6c-0.4,0.4-0.6,0.9-0.6,1.6c0,0.6,0.2,1.2,0.6,1.6c0.4,0.4,0.9,0.6,1.4,0.6
				c0.6,0,1.1-0.2,1.4-0.6c0.4-0.4,0.6-0.9,0.6-1.6c0-0.6-0.2-1.2-0.6-1.6C92.6,30.5,92.2,30.3,91.6,30.3z"/>
			<path class="st1" d="M97.4,26h1.9v2.7h1.1v1.6h-1.1v5.8h-1.9v-5.8h-1v-1.6h1V26z"/>
			<path class="st1" d="M108.7,33h-6c0.1,0.5,0.3,0.9,0.7,1.3c0.4,0.3,0.8,0.5,1.4,0.5c0.7,0,1.3-0.2,1.8-0.7l1.6,0.7
				c-0.4,0.6-0.9,1-1.4,1.2s-1.2,0.4-1.9,0.4c-1.2,0-2.1-0.4-2.8-1.1c-0.7-0.7-1.1-1.6-1.1-2.7c0-1.1,0.4-2.1,1.1-2.8
				c0.7-0.7,1.6-1.1,2.7-1.1c1.2,0,2.1,0.4,2.8,1.1c0.7,0.7,1.1,1.7,1.1,3L108.7,33z M106.8,31.5c-0.1-0.4-0.4-0.7-0.7-1
				c-0.4-0.3-0.8-0.4-1.3-0.4c-0.5,0-1,0.1-1.4,0.4c-0.2,0.2-0.5,0.5-0.7,1C102.8,31.5,106.8,31.5,106.8,31.5z"/>
			<path class="st1" d="M115.6,25.9h1.9v10.2h-1.9v-0.8c-0.4,0.3-0.7,0.6-1.1,0.7c-0.4,0.2-0.8,0.2-1.2,0.2c-1,0-1.8-0.4-2.5-1.1
				c-0.7-0.7-1-1.7-1-2.8c0-1.1,0.3-2.1,1-2.8c0.7-0.7,1.5-1.1,2.5-1.1c0.4,0,0.9,0.1,1.2,0.3c0.4,0.2,0.7,0.4,1.1,0.8
				C115.6,29.6,115.6,25.9,115.6,25.9z M113.6,30.3c-0.6,0-1,0.2-1.4,0.6c-0.4,0.4-0.6,0.9-0.6,1.6c0,0.6,0.2,1.2,0.6,1.6
				c0.4,0.4,0.9,0.6,1.4,0.6c0.6,0,1.1-0.2,1.4-0.6c0.4-0.4,0.6-0.9,0.6-1.6c0-0.6-0.2-1.2-0.6-1.6
				C114.7,30.5,114.2,30.3,113.6,30.3z"/>
			<path class="st1" d="M123.3,26.1h5.5V28h-3.6v1.8h3.6v1.8h-3.6v2.6h3.6v1.9h-5.5C123.3,36.1,123.3,26.1,123.3,26.1z"/>
			<path class="st1" d="M129.6,28.7h2.2l1.5,2l1.5-2h2.1l-2.5,3.5l2.8,3.9h-2.2l-1.8-2.4l-1.7,2.4h-2.1l2.8-3.9L129.6,28.7z"/>
			<path class="st1" d="M139.8,28.7v0.8c0.3-0.3,0.7-0.6,1.1-0.8c0.4-0.2,0.8-0.3,1.2-0.3c1,0,1.8,0.4,2.5,1.1c0.7,0.7,1,1.7,1,2.8
				c0,1.1-0.3,2-1,2.8c-0.7,0.7-1.5,1.1-2.5,1.1c-0.4,0-0.8-0.1-1.2-0.2s-0.7-0.4-1.1-0.7v3.5h-1.8V28.7H139.8z M141.7,30.3
				c-0.6,0-1.1,0.2-1.5,0.6c-0.4,0.4-0.6,0.9-0.6,1.6c0,0.7,0.2,1.2,0.6,1.6c0.4,0.4,0.9,0.6,1.5,0.6c0.6,0,1-0.2,1.4-0.6
				c0.4-0.4,0.6-0.9,0.6-1.6c0-0.6-0.2-1.2-0.6-1.6C142.8,30.5,142.3,30.3,141.7,30.3z"/>
			<path class="st1" d="M146.9,25.9h1.9v10.2h-1.9V25.9z"/>
			<path class="st1" d="M155.8,28.7h1.9v7.4h-1.9v-0.8c-0.4,0.3-0.7,0.6-1.1,0.7c-0.4,0.2-0.8,0.2-1.2,0.2c-1,0-1.8-0.4-2.5-1.1
				c-0.7-0.7-1-1.7-1-2.8c0-1.1,0.3-2.1,1-2.8c0.7-0.7,1.5-1.1,2.5-1.1c0.4,0,0.9,0.1,1.2,0.3c0.4,0.2,0.7,0.4,1.1,0.8V28.7z
				 M153.8,30.3c-0.6,0-1,0.2-1.4,0.6c-0.4,0.4-0.6,0.9-0.6,1.6c0,0.6,0.2,1.2,0.6,1.6c0.4,0.4,0.9,0.6,1.4,0.6
				c0.6,0,1.1-0.2,1.4-0.6c0.4-0.4,0.6-0.9,0.6-1.6c0-0.6-0.2-1.2-0.6-1.6C154.9,30.5,154.4,30.3,153.8,30.3z"/>
			<path class="st1" d="M159.2,28.7h1.9v7.4h-1.9V28.7z"/>
			<path class="st1" d="M162.7,28.7h1.9v0.8c0.4-0.4,0.8-0.6,1.1-0.7c0.3-0.1,0.7-0.2,1-0.2c0.7,0,1.4,0.3,1.9,0.8
				c0.4,0.4,0.6,1.1,0.6,1.9v4.9h-1.8v-3.2c0-0.9,0-1.5-0.1-1.8s-0.2-0.5-0.4-0.7c-0.2-0.2-0.4-0.2-0.7-0.2c-0.4,0-0.7,0.1-1,0.4
				c-0.3,0.3-0.5,0.6-0.6,1c-0.1,0.2-0.1,0.7-0.1,1.5v3h-1.9V28.7z"/>
			<path class="st1" d="M178.4,33h-6c0.1,0.5,0.3,0.9,0.7,1.3c0.4,0.3,0.8,0.5,1.4,0.5c0.7,0,1.3-0.2,1.8-0.7l1.6,0.7
				c-0.4,0.6-0.9,1-1.4,1.2s-1.2,0.4-1.9,0.4c-1.2,0-2.1-0.4-2.8-1.1c-0.7-0.7-1.1-1.6-1.1-2.7c0-1.1,0.4-2.1,1.1-2.8
				c0.7-0.7,1.6-1.1,2.7-1.1c1.2,0,2.1,0.4,2.8,1.1c0.7,0.7,1.1,1.7,1.1,3L178.4,33z M176.5,31.5c-0.1-0.4-0.4-0.7-0.7-1
				c-0.4-0.3-0.8-0.4-1.3-0.4c-0.5,0-1,0.1-1.4,0.4c-0.2,0.2-0.5,0.5-0.7,1C172.5,31.5,176.5,31.5,176.5,31.5z"/>
			<path class="st1" d="M179.4,28.7h1.6v0.9c0.2-0.4,0.4-0.6,0.7-0.8s0.6-0.3,0.9-0.3c0.2,0,0.5,0.1,0.8,0.2l-0.6,1.6
				c-0.2-0.1-0.4-0.2-0.5-0.2c-0.3,0-0.5,0.2-0.7,0.5c-0.2,0.4-0.3,1-0.3,2.1l0,0.4v3h-1.8V28.7z"/>
		</g>
		<path class="st2" d="M72.5,27.9l-1.1-1.1l1.1-1.1l1.1,1.1L72.5,27.9z"/>
		<path class="st2" d="M160.2,27.9l-1.1-1.1l1.1-1.1l1.1,1.1L160.2,27.9z"/>
	</g>
	<g>
		<path class="st3" d="M57,17.7l3.2-8.5h1.7l-4.3,11.4h-1.2L52.1,9.3h1.7L57,17.7z"/>
		<path class="st3" d="M64.1,12.9c-0.5,0-1-0.4-1-1s0.4-1,1-1s1,0.4,1,1S64.6,12.9,64.1,12.9z M64.8,20.7h-1.6v-6.6h1.6V20.7z"/>
		<path class="st3" d="M69,15.3c-0.5,0-0.8,0.2-0.8,0.4c0,0.4,0.3,0.6,1.1,0.8c1.2,0.3,2.2,1,2.2,2.3c0,1.2-1,2-2.7,2
			c-1.3,0-2.2-0.7-2.5-1.5l1.3-0.5c0.2,0.3,0.5,0.6,1.3,0.6c0.8,0,1-0.3,1-0.7c0-0.4-0.4-0.7-1.3-0.9c-1.2-0.3-2.1-0.9-2.1-2.1
			c0-1.1,1-1.9,2.4-1.9c1.3,0,1.9,0.5,2.3,1.2l-1.2,0.6C69.9,15.5,69.6,15.3,69,15.3z"/>
		<path class="st3" d="M74.4,18.2c0,0.9,0.5,1.3,1.3,1.3c0.8,0,1.3-0.4,1.3-1.3v-4.1h1.6v4.1c0,1.5-1.1,2.7-2.9,2.7
			c-1.8,0-2.8-1.2-2.8-2.7v-4.1h1.6V18.2z"/>
		<path class="st3" d="M83.4,14c1.4,0,2.2,0.6,2.6,1.1v-1h1.6v6.6H86v-1c-0.4,0.5-1.2,1.1-2.6,1.1c-1.8,0-3.4-1.4-3.4-3.4
			C80,15.5,81.6,14,83.4,14z M85.8,17.4c0-1.2-0.9-2.1-2.1-2.1c-1.2,0-2.1,0.9-2.1,2.1c0,1.2,0.9,2.1,2.1,2.1
			C84.9,19.5,85.8,18.6,85.8,17.4z"/>
		<path class="st3" d="M89.3,20.7V8.9h1.6v11.8H89.3z"/>
		<path class="st3" d="M100.3,15.5h-1.6v5.2h-1.6V9.3h3.2c1.7,0,3.1,1.3,3.1,3.2C103.4,14.1,101.9,15.5,100.3,15.5z M100.3,10.9
			h-1.5v3h1.6c0.6,0,1.4-0.4,1.4-1.4C101.7,11.5,100.9,10.9,100.3,10.9z"/>
		<path class="st3" d="M107.9,14c1.4,0,2.2,0.6,2.6,1.1v-1h1.6v6.6h-1.6v-1c-0.4,0.5-1.2,1.1-2.6,1.1c-1.8,0-3.4-1.4-3.4-3.4
			C104.5,15.5,106,14,107.9,14z M110.2,17.4c0-1.2-0.9-2.1-2.1-2.1c-1.2,0-2.1,0.9-2.1,2.1c0,1.2,0.9,2.1,2.1,2.1
			C109.4,19.5,110.2,18.6,110.2,17.4z"/>
		<path class="st3" d="M113.6,14.1h1.6v0.8c0.5-0.6,1.3-1,2.8-1v1.6c-0.2,0-0.4,0-0.6,0c-1.1,0-2.2,0.6-2.2,1.4v3.8h-1.6V14.1z"/>
		<path class="st3" d="M122.2,14c1.4,0,2.2,0.6,2.6,1.1v-1h1.6v6.6h-1.6v-1c-0.4,0.5-1.2,1.1-2.6,1.1c-1.8,0-3.4-1.4-3.4-3.4
			C118.8,15.5,120.4,14,122.2,14z M124.6,17.4c0-1.2-0.9-2.1-2.1-2.1c-1.2,0-2.1,0.9-2.1,2.1c0,1.2,0.9,2.1,2.1,2.1
			C123.7,19.5,124.6,18.6,124.6,17.4z"/>
		<path class="st3" d="M135.2,20.7h-1.6v-1c-0.4,0.5-1.2,1.1-2.6,1.1c-1.8,0-3.4-1.4-3.4-3.4c0-2,1.6-3.5,3.4-3.5
			c1.4,0,2.2,0.6,2.6,1.1V8.9h1.6V20.7z M133.4,17.4c0-1.2-0.9-2.1-2.1-2.1c-1.2,0-2.1,0.9-2.1,2.1c0,1.2,0.9,2.1,2.1,2.1
			C132.5,19.5,133.4,18.6,133.4,17.4z"/>
		<path class="st3" d="M137.7,12.9c-0.5,0-1-0.4-1-1s0.4-1,1-1s1,0.4,1,1S138.3,12.9,137.7,12.9z M138.5,20.7H137v-6.6h1.6V20.7z"/>
		<path class="st3" d="M143.6,20.9c-1.8,0-3.4-1.4-3.4-3.4c0-2,1.6-3.5,3.4-3.5c1.4,0,2.2,0.6,2.6,1.1v-1h1.6v6.6
			c0,2-1.6,3.3-3.8,3.3c-2.1,0-3.2-1.1-3.5-2.3h1.8c0.1,0.4,0.7,0.9,1.8,0.9c1.5,0,2.2-0.7,2.2-1.8v-1
			C145.7,20.2,144.9,20.9,143.6,20.9z M145.9,17.4c0-1.2-0.9-2.1-2.1-2.1c-1.2,0-2.1,0.9-2.1,2.1c0,1.2,0.9,2.1,2.1,2.1
			C145.1,19.5,145.9,18.6,145.9,17.4z"/>
		<path class="st3" d="M149.3,14.1h1.6v0.6c0.2-0.3,0.7-0.7,1.5-0.7c1.1,0,1.6,0.3,2.1,0.8c0.4-0.5,1-0.8,2-0.8
			c1.4,0,2.4,0.8,2.4,2.2v4.6h-1.6v-4.2c0-0.5-0.3-1-1-1c-0.9,0-1.4,0.5-1.4,1.2v4.1h-1.6v-4.3c0-0.6-0.4-0.9-1.1-0.9
			c-0.8,0-1.3,0.5-1.3,1.1v4.1h-1.6V14.1z"/>
	</g>
</g>
</svg>
