<?xml version="1.0" encoding="utf-8"?>
<!-- Generator: Adobe Illustrator 28.0.0, SVG Export Plug-In . SVG Version: 6.00 Build 0)  -->
<svg version="1.1" id="Layer_1" xmlns="http://www.w3.org/2000/svg" xmlns:xlink="http://www.w3.org/1999/xlink" x="0px" y="0px"
	 viewBox="0 0 185 50" style="enable-background:new 0 0 185 50;" xml:space="preserve">
<style type="text/css">
	.st0{fill:url(#SVGID_1_);}
	.st1{fill:url(#SVGID_00000024704147028012058850000004775819825563860132_);}
	.st2{fill:url(#SVGID_00000090997523945916965950000008400950387665813383_);}
	.st3{fill:url(#SVGID_00000028283602659462691620000015644646066559697335_);}
	.st4{fill:#404040;}
	.st5{fill:#434449;}
</style>
<g>
	
		<linearGradient id="SVGID_1_" gradientUnits="userSpaceOnUse" x1="25.7972" y1="44.899" x2="30.0257" y2="49.1275" gradientTransform="matrix(1 0 0 -1 0 52)">
		<stop  offset="0" style="stop-color:#7C3AFF"/>
		<stop  offset="1" style="stop-color:#17DAFF"/>
	</linearGradient>
	<path class="st0" d="M30,7.1c1.2-1.2,1.2-3.1,0-4.2s-3.1-1.2-4.2,0c-1.2,1.2-1.2,3.1,0,4.2C27,8.3,28.8,8.3,30,7.1z"/>
	
		<linearGradient id="SVGID_00000011726830231135405990000016239908939510640044_" gradientUnits="userSpaceOnUse" x1="25.773" y1="4.8711" x2="30.0015" y2="9.0996" gradientTransform="matrix(1 0 0 -1 0 52)">
		<stop  offset="0" style="stop-color:#7C3AFF"/>
		<stop  offset="1" style="stop-color:#17DAFF"/>
	</linearGradient>
	<path style="fill:url(#SVGID_00000011726830231135405990000016239908939510640044_);" d="M25.8,42.9c-1.2,1.2-1.2,3.1,0,4.2
		c1.2,1.2,3.1,1.2,4.2,0c1.2-1.2,1.2-3.1,0-4.2C28.8,41.7,27,41.7,25.8,42.9z"/>
	<g>
		
			<linearGradient id="SVGID_00000033327181576401435620000016632713182911170948_" gradientUnits="userSpaceOnUse" x1="25.7879" y1="24.886" x2="30.0164" y2="29.1145" gradientTransform="matrix(1 0 0 -1 0 52)">
			<stop  offset="0" style="stop-color:#7C3AFF"/>
			<stop  offset="1" style="stop-color:#17DAFF"/>
		</linearGradient>
		<path style="fill:url(#SVGID_00000033327181576401435620000016632713182911170948_);" d="M25.8,22.9c-1.2,1.2-1.2,3.1,0,4.2
			c1.2,1.2,3.1,1.2,4.2,0c1.2-1.2,1.2-3.1,0-4.2C28.8,21.7,27,21.7,25.8,22.9z"/>
		
			<linearGradient id="SVGID_00000137110434796870924450000013054791655172380565_" gradientUnits="userSpaceOnUse" x1="14.675" y1="13.925" x2="40.9782" y2="40.2281" gradientTransform="matrix(1 0 0 -1 0 52)">
			<stop  offset="0" style="stop-color:#7C3AFF"/>
			<stop  offset="1" style="stop-color:#17DAFF"/>
		</linearGradient>
		<path style="fill:url(#SVGID_00000137110434796870924450000013054791655172380565_);" d="M50.2,23c-0.6-0.7-1.6-1.1-2.5-1
			c-0.8,0.1-1.7-0.3-2.3-0.9L43,18.5c-0.7-0.7-0.9-1.7-0.7-2.6c0.3-1.5-0.2-3.1-1.4-4.2c-1.8-1.6-4.5-1.6-6.3,0
			c-0.2,0.2-0.4,0.5-0.6,0.7c-0.5,0.8-1.4,1.2-2.4,1.2h-7.8c-0.9,0-1.8-0.5-2.4-1.2c-0.2-0.3-0.4-0.5-0.6-0.7
			c-1.7-1.6-4.5-1.7-6.3,0c-1.9,1.8-1.9,4.8-0.1,6.6c0.3,0.3,0.6,0.6,1,0.8c0.9,0.5,1.5,1.5,1.5,2.5V30c0,0.3-0.2,0.6-0.5,0.7l0,0
			c-0.3,0.1-0.6,0-0.8-0.2l-3.9-3.9c-0.5-0.5-0.8-1.2-0.8-1.9c0-0.8-0.4-1.5-1-2.1c-1.1-1-2.8-1-3.9,0c-1.3,1.2-1.4,3.2-0.2,4.4
			c0.6,0.8,1.5,1,2.3,1c0.9-0.1,1.7,0.2,2.3,0.8l2.4,2.4c0.7,0.7,1,1.7,0.8,2.7c-0.4,1.5,0.1,3.1,1.2,4.3c1.8,1.7,4.6,1.8,6.4,0
			c0.3-0.3,0.5-0.6,0.7-0.9c0.5-0.9,1.5-1.4,2.5-1.4h7.2c1,0,2,0.5,2.5,1.4c0.2,0.3,0.4,0.6,0.7,0.9c1.8,1.7,4.7,1.7,6.4-0.1
			c1.8-1.8,1.8-4.7,0-6.5c-0.2-0.2-0.5-0.4-0.7-0.6c-0.8-0.5-1.3-1.5-1.3-2.4v-9.1c0-0.2,0.1-0.4,0.3-0.5l0,0
			c0.2-0.1,0.5-0.1,0.7,0.1L44,23c0.5,0.5,0.8,1.2,0.8,1.9c0,0.7,0.3,1.5,0.9,2c1.2,1.2,3.2,1.2,4.4-0.2
			C51.1,25.9,51.1,24.1,50.2,23z M34.9,31.8c-0.2,0.2-0.4,0.4-0.5,0.6c-0.6,0.8-1.5,1.2-2.4,1.2h-7.7c-1,0-1.9-0.4-2.4-1.2
			c-0.1-0.2-0.3-0.4-0.5-0.6s-0.5-0.4-0.7-0.6c-0.8-0.5-1.3-1.5-1.3-2.4V21c0-0.9,0.4-1.8,1.1-2.3c0.2-0.1,0.3-0.3,0.5-0.4
			c0.3-0.3,0.5-0.6,0.7-0.9c0.5-0.9,1.5-1.4,2.5-1.4h7.2c1,0,2,0.5,2.5,1.4c0.2,0.3,0.4,0.6,0.7,0.9s0.6,0.6,1,0.8
			c0.9,0.5,1.5,1.5,1.5,2.5v7.2c0,1-0.5,1.9-1.3,2.4C35.4,31.4,35.1,31.6,34.9,31.8z"/>
	</g>
</g>
<g>
	<g>
		<g>
			<path class="st4" d="M53.1,10.2h1.3l3.9,9.1l4-9.1h1.3L58.5,22h-0.3L53.1,10.2z"/>
			<path class="st4" d="M65.9,9.7c0.3,0,0.5,0.1,0.7,0.3s0.3,0.4,0.3,0.7s-0.1,0.5-0.3,0.7c-0.2,0.2-0.4,0.3-0.7,0.3
				c-0.3,0-0.5-0.1-0.6-0.3C65.1,11.2,65,11,65,10.7s0.1-0.5,0.3-0.7C65.5,9.8,65.7,9.7,65.9,9.7z M65.4,13.3h1.1V22h-1.1V13.3z"/>
			<path class="st4" d="M73.3,14.3L72.6,15c-0.6-0.6-1.2-0.9-1.8-0.9c-0.4,0-0.7,0.1-0.9,0.4c-0.3,0.2-0.4,0.5-0.4,0.8
				s0.1,0.6,0.3,0.8c0.2,0.3,0.7,0.6,1.4,0.9c0.8,0.4,1.4,0.9,1.7,1.3c0.3,0.4,0.4,0.9,0.4,1.4c0,0.7-0.3,1.3-0.8,1.8
				s-1.1,0.7-1.9,0.7c-0.5,0-1-0.1-1.4-0.3c-0.5-0.2-0.8-0.5-1.1-0.9l0.7-0.8c0.6,0.6,1.2,1,1.8,1c0.5,0,0.8-0.1,1.2-0.4
				c0.3-0.3,0.5-0.6,0.5-1c0-0.3-0.1-0.6-0.3-0.9c-0.2-0.2-0.7-0.6-1.4-0.9c-0.8-0.4-1.3-0.8-1.6-1.2c-0.3-0.4-0.4-0.8-0.4-1.4
				c0-0.7,0.2-1.2,0.7-1.7c0.5-0.4,1-0.7,1.7-0.7C71.7,13.1,72.5,13.5,73.3,14.3z"/>
			<path class="st4" d="M75.2,13.3h1.1v4.1c0,1,0.1,1.7,0.2,2.1c0.2,0.5,0.5,1,0.9,1.3c0.5,0.3,1,0.5,1.6,0.5s1.2-0.2,1.6-0.5
				s0.7-0.7,0.9-1.2c0.1-0.3,0.2-1.1,0.2-2.1v-4.1h1.1v4.3c0,1.2-0.1,2.1-0.4,2.7s-0.7,1.1-1.3,1.4s-1.3,0.5-2.1,0.5
				c-0.9,0-1.6-0.2-2.1-0.5c-0.6-0.3-1-0.8-1.3-1.4s-0.4-1.5-0.4-2.8L75.2,13.3L75.2,13.3z"/>
			<path class="st4" d="M94.2,13.3V22h-1.1v-1.5c-0.5,0.6-1,1-1.6,1.3s-1.2,0.4-1.9,0.4c-1.2,0-2.3-0.5-3.2-1.3s-1.3-2-1.3-3.3
				s0.4-2.3,1.3-3.2s1.9-1.3,3.2-1.3c0.7,0,1.4,0.2,1.9,0.5c0.6,0.3,1.1,0.8,1.5,1.4v-1.6L94.2,13.3L94.2,13.3z M89.7,14.2
				c-0.6,0-1.2,0.2-1.7,0.5s-1,0.7-1.3,1.3s-0.5,1.1-0.5,1.8c0,0.6,0.2,1.2,0.5,1.8c0.3,0.6,0.7,1,1.3,1.3c0.5,0.3,1.1,0.5,1.7,0.5
				s1.2-0.2,1.8-0.5c0.6-0.3,1-0.7,1.3-1.3c0.3-0.5,0.4-1.1,0.4-1.8c0-1-0.3-1.9-1-2.5C91.5,14.5,90.7,14.2,89.7,14.2z"/>
			<path class="st4" d="M96.6,9.9h1.1V22h-1.1V9.9z"/>
			<path class="st4" d="M105,10.2h2.4c1.4,0,2.3,0.1,2.7,0.2c0.7,0.2,1.2,0.5,1.7,1c0.4,0.5,0.6,1.2,0.6,2s-0.2,1.4-0.6,1.9
				s-1,0.9-1.7,1c-0.5,0.1-1.5,0.2-3,0.2h-0.8V22H105V10.2z M106.2,11.4v4h2c0.8,0,1.4-0.1,1.8-0.2c0.4-0.1,0.7-0.4,0.9-0.7
				c0.2-0.3,0.3-0.7,0.3-1.1c0-0.4-0.1-0.8-0.3-1.1c-0.2-0.3-0.5-0.6-0.8-0.7c-0.4-0.1-0.9-0.2-1.7-0.2H106.2z"/>
			<path class="st4" d="M123.4,13.3V22h-1.1v-1.5c-0.5,0.6-1,1-1.6,1.3s-1.2,0.4-1.9,0.4c-1.2,0-2.3-0.5-3.2-1.3s-1.3-2-1.3-3.3
				s0.4-2.3,1.3-3.2s1.9-1.3,3.2-1.3c0.7,0,1.4,0.2,1.9,0.5c0.6,0.3,1.1,0.8,1.5,1.4v-1.6L123.4,13.3L123.4,13.3z M118.9,14.2
				c-0.6,0-1.2,0.2-1.7,0.5s-1,0.7-1.3,1.3s-0.5,1.1-0.5,1.8c0,0.6,0.2,1.2,0.5,1.8c0.3,0.6,0.7,1,1.3,1.3c0.5,0.3,1.1,0.5,1.7,0.5
				s1.2-0.2,1.8-0.5c0.6-0.3,1-0.7,1.3-1.3c0.3-0.5,0.4-1.1,0.4-1.8c0-1-0.3-1.9-1-2.5C120.7,14.5,119.9,14.2,118.9,14.2z"/>
			<path class="st4" d="M125.6,13.3h1.1v1.3c0.3-0.5,0.7-0.9,1.1-1.1c0.4-0.2,0.8-0.4,1.2-0.4c0.3,0,0.6,0.1,1,0.3l-0.6,0.9
				c-0.2-0.1-0.4-0.2-0.6-0.2c-0.4,0-0.7,0.2-1.1,0.5c-0.3,0.3-0.6,0.8-0.8,1.4c-0.1,0.5-0.2,1.5-0.2,3v3h-1.1
				C125.6,22,125.6,13.3,125.6,13.3z"/>
			<path class="st4" d="M139.7,13.3V22h-1.1v-1.5c-0.5,0.6-1,1-1.6,1.3s-1.2,0.4-1.9,0.4c-1.2,0-2.3-0.5-3.2-1.3
				c-0.9-0.9-1.3-2-1.3-3.3s0.4-2.3,1.3-3.2c0.9-0.9,1.9-1.3,3.2-1.3c0.7,0,1.4,0.2,1.9,0.5c0.6,0.3,1.1,0.8,1.5,1.4v-1.6
				L139.7,13.3L139.7,13.3z M135.2,14.2c-0.6,0-1.2,0.2-1.7,0.5s-1,0.7-1.3,1.3s-0.5,1.1-0.5,1.8c0,0.6,0.2,1.2,0.5,1.8
				c0.3,0.6,0.7,1,1.3,1.3c0.5,0.3,1.1,0.5,1.7,0.5c0.6,0,1.2-0.2,1.8-0.5s1-0.7,1.3-1.3c0.3-0.5,0.4-1.1,0.4-1.8c0-1-0.3-1.9-1-2.5
				C137,14.5,136.2,14.2,135.2,14.2z"/>
			<path class="st4" d="M151.1,9.9V22H150v-1.5c-0.5,0.6-1,1-1.6,1.3s-1.2,0.4-1.9,0.4c-1.2,0-2.3-0.5-3.2-1.3
				c-0.9-0.9-1.3-2-1.3-3.3s0.4-2.3,1.3-3.2c0.9-0.9,1.9-1.3,3.2-1.3c0.7,0,1.4,0.2,1.9,0.5c0.6,0.3,1.1,0.8,1.5,1.4v-5h1.2
				L151.1,9.9L151.1,9.9z M146.6,14.2c-0.6,0-1.2,0.2-1.7,0.5s-1,0.7-1.3,1.3s-0.5,1.1-0.5,1.8c0,0.6,0.2,1.2,0.5,1.8
				c0.3,0.6,0.7,1,1.3,1.3c0.5,0.3,1.1,0.5,1.7,0.5c0.6,0,1.2-0.2,1.8-0.5s1-0.7,1.3-1.3c0.3-0.5,0.4-1.1,0.4-1.8c0-1-0.3-1.9-1-2.5
				C148.4,14.5,147.6,14.2,146.6,14.2z"/>
			<path class="st4" d="M154.1,9.7c0.3,0,0.5,0.1,0.7,0.3s0.3,0.4,0.3,0.7s-0.1,0.5-0.3,0.7s-0.4,0.3-0.7,0.3s-0.5-0.1-0.6-0.3
				c-0.2-0.2-0.3-0.4-0.3-0.7s0.1-0.5,0.3-0.7C153.6,9.8,153.9,9.7,154.1,9.7z M153.6,13.3h1.1V22h-1.1V13.3z"/>
			<path class="st4" d="M164.6,13.3h1.1v7c0,1.2-0.1,2.1-0.3,2.7c-0.3,0.8-0.8,1.4-1.5,1.9s-1.6,0.7-2.6,0.7c-0.8,0-1.4-0.1-2-0.3
				c-0.6-0.2-1.1-0.5-1.5-0.9s-0.7-0.9-1-1.6h1.2c0.3,0.6,0.8,1,1.3,1.3s1.2,0.4,2,0.4s1.4-0.1,1.9-0.4s0.9-0.6,1.1-1.1
				c0.2-0.4,0.3-1.1,0.3-2.1v-0.5c-0.4,0.5-0.9,0.9-1.6,1.2c-0.6,0.3-1.3,0.4-1.9,0.4c-0.8,0-1.6-0.2-2.3-0.6s-1.3-0.9-1.6-1.6
				c-0.4-0.7-0.6-1.4-0.6-2.2c0-0.8,0.2-1.6,0.6-2.3c0.4-0.7,1-1.3,1.7-1.7s1.5-0.6,2.2-0.6s1.3,0.1,1.8,0.4
				c0.6,0.3,1.1,0.7,1.6,1.3v-1.4C164.5,13.3,164.6,13.3,164.6,13.3z M161.3,14.2c-0.6,0-1.2,0.2-1.8,0.5c-0.5,0.3-1,0.7-1.3,1.3
				s-0.5,1.1-0.5,1.8c0,1,0.3,1.8,1,2.4c0.6,0.6,1.5,0.9,2.5,0.9s1.9-0.3,2.5-0.9s0.9-1.4,0.9-2.5c0-0.7-0.1-1.2-0.4-1.8
				c-0.3-0.5-0.7-0.9-1.2-1.2C162.5,14.3,161.9,14.2,161.3,14.2z"/>
			<path class="st4" d="M168.3,13.3h1.1v1.5c0.4-0.6,0.8-1,1.2-1.2c0.6-0.3,1.2-0.5,1.8-0.5c0.4,0,0.8,0.1,1.2,0.2
				c0.4,0.2,0.7,0.4,0.9,0.7s0.5,0.7,0.6,1.2c0.4-0.7,0.8-1.2,1.4-1.6c0.6-0.4,1.2-0.5,1.8-0.5s1.1,0.2,1.6,0.5s0.8,0.7,1,1.3
				c0.2,0.5,0.3,1.4,0.3,2.5v4.8h-1.1v-4.8c0-0.9-0.1-1.6-0.2-1.9c-0.1-0.4-0.4-0.6-0.7-0.8s-0.7-0.3-1.2-0.3s-1,0.2-1.5,0.5
				s-0.8,0.8-1,1.3c-0.2,0.5-0.3,1.4-0.3,2.7v3.4h-1.1v-4.5c0-1.1-0.1-1.8-0.2-2.2c-0.1-0.4-0.4-0.7-0.7-0.9s-0.7-0.3-1.2-0.3
				s-1,0.2-1.5,0.5s-0.8,0.7-1,1.3c-0.2,0.6-0.3,1.3-0.3,2.4v3.7h-1.1v-9C168.1,13.3,168.3,13.3,168.3,13.3z"/>
		</g>
	</g>
	<g>
		<path class="st5" d="M55.9,39.8c-1-0.3-1.8-0.7-2.4-1.1l1.1-2.4c0.6,0.4,1.3,0.8,2.1,1c0.8,0.3,1.6,0.4,2.4,0.4
			c0.9,0,1.6-0.1,2-0.4c0.4-0.3,0.6-0.6,0.6-1.1c0-0.3-0.1-0.6-0.4-0.8c-0.3-0.2-0.6-0.4-1-0.5s-0.9-0.3-1.6-0.4
			c-1-0.2-1.9-0.5-2.6-0.7c-0.7-0.2-1.2-0.6-1.7-1.2c-0.5-0.5-0.7-1.3-0.7-2.2c0-0.8,0.2-1.5,0.6-2.2s1.1-1.2,2-1.5
			c0.9-0.4,1.9-0.6,3.2-0.6c0.9,0,1.7,0.1,2.6,0.3c0.8,0.2,1.6,0.5,2.2,0.9l-1,2.4c-1.3-0.7-2.5-1.1-3.8-1.1c-0.9,0-1.5,0.1-2,0.4
			c-0.4,0.3-0.6,0.7-0.6,1.1c0,0.5,0.2,0.8,0.7,1s1.2,0.5,2.2,0.7s1.9,0.5,2.6,0.7c0.7,0.2,1.2,0.6,1.7,1.2c0.5,0.5,0.7,1.3,0.7,2.2
			c0,0.8-0.2,1.5-0.7,2.1c-0.4,0.6-1.1,1.2-2,1.5c-0.9,0.4-1.9,0.6-3.2,0.6C57.9,40.3,56.9,40.1,55.9,39.8z"/>
		<path class="st5" d="M83.5,30.5c0.8,0.8,1.2,1.9,1.2,3.5v6h-3.1v-5.6c0-0.8-0.2-1.5-0.5-1.9s-0.8-0.6-1.5-0.6s-1.3,0.2-1.7,0.7
			c-0.4,0.5-0.6,1.2-0.6,2.1V40h-3.1v-5.6c0-1.7-0.7-2.5-2-2.5c-0.7,0-1.3,0.2-1.7,0.7c-0.4,0.5-0.6,1.2-0.6,2.1V40h-3.1V29.5h2.9
			v1.2c0.4-0.4,0.9-0.8,1.4-1c0.6-0.2,1.2-0.4,1.9-0.4c0.7,0,1.4,0.1,2,0.4s1.1,0.7,1.5,1.3c0.4-0.5,1-1,1.6-1.3
			c0.7-0.3,1.4-0.5,2.2-0.5C81.7,29.3,82.7,29.7,83.5,30.5z"/>
		<path class="st5" d="M95.4,30.5c0.9,0.8,1.3,2,1.3,3.5v6h-2.9v-1.3c-0.6,1-1.6,1.5-3.2,1.5c-0.8,0-1.5-0.1-2.1-0.4
			c-0.6-0.3-1-0.7-1.4-1.1c-0.3-0.5-0.5-1-0.5-1.6c0-1,0.4-1.8,1.1-2.3c0.7-0.6,1.9-0.8,3.4-0.8h2.4c0-0.7-0.2-1.2-0.6-1.5
			c-0.4-0.4-1-0.5-1.8-0.5c-0.6,0-1.1,0.1-1.7,0.3c-0.5,0.2-1,0.4-1.4,0.7l-1.1-2.1c0.6-0.4,1.3-0.7,2.1-0.9
			c0.8-0.2,1.6-0.3,2.5-0.3C93.3,29.3,94.6,29.7,95.4,30.5z M92.8,37.8c0.4-0.2,0.7-0.6,0.9-1.1v-1.1h-2.1c-1.3,0-1.9,0.4-1.9,1.2
			c0,0.4,0.2,0.7,0.5,0.9s0.7,0.3,1.3,0.3C92,38.1,92.4,38,92.8,37.8z"/>
		<path class="st5" d="M103.9,29.7c0.6-0.3,1.3-0.4,2.1-0.4v2.8c-0.3,0-0.6,0-0.7,0c-0.9,0-1.6,0.2-2.1,0.7s-0.7,1.2-0.7,2.2v5h-3.1
			V29.5h2.9v1.4C102.8,30.4,103.3,30,103.9,29.7z"/>
		<path class="st5" d="M115.1,39.5c-0.3,0.2-0.7,0.4-1.1,0.5s-0.9,0.2-1.4,0.2c-1.3,0-2.2-0.3-2.9-1c-0.7-0.6-1-1.6-1-2.8v-4.3H107
			v-2.4h1.6v-2.6h3.1v2.6h2.6v2.4h-2.6v4.3c0,0.4,0.1,0.8,0.3,1c0.2,0.2,0.6,0.4,1,0.4c0.5,0,0.9-0.1,1.2-0.4L115.1,39.5z"/>
		<path class="st5" d="M134.5,34.1c0.4,0.6,0.7,1.3,0.7,2.1c0,1.2-0.5,2.1-1.4,2.8c-0.9,0.6-2.3,1-4.1,1h-7.1V26.3h6.7
			c1.7,0,3,0.3,3.9,1c0.9,0.6,1.3,1.5,1.3,2.6c0,0.7-0.2,1.3-0.5,1.8c-0.3,0.5-0.8,0.9-1.3,1.2C133.4,33.1,134.1,33.6,134.5,34.1z
			 M125.7,28.7v3.2h3.2c0.8,0,1.4-0.1,1.8-0.4c0.4-0.3,0.6-0.7,0.6-1.2s-0.2-0.9-0.6-1.2c-0.4-0.3-1-0.4-1.8-0.4H125.7z M131.3,37.2
			c0.4-0.3,0.6-0.7,0.6-1.3c0-1.1-0.8-1.7-2.5-1.7h-3.7v3.4h3.7C130.3,37.6,130.9,37.5,131.3,37.2z"/>
		<path class="st5" d="M139.4,39.5c-0.9-0.5-1.6-1.1-2.1-1.9c-0.5-0.8-0.7-1.8-0.7-2.8s0.2-2,0.7-2.8s1.2-1.5,2.1-1.9
			c0.9-0.5,1.9-0.7,3-0.7s2.1,0.2,3,0.7s1.6,1.1,2.1,1.9s0.7,1.8,0.7,2.8s-0.2,2-0.7,2.8s-1.2,1.5-2.1,1.9c-0.9,0.5-1.9,0.7-3,0.7
			C141.3,40.2,140.3,40,139.4,39.5z M144.3,36.9c0.5-0.5,0.8-1.2,0.8-2.1s-0.3-1.6-0.8-2.1s-1.1-0.8-1.9-0.8s-1.4,0.3-1.9,0.8
			s-0.8,1.2-0.8,2.1s0.3,1.6,0.8,2.1s1.2,0.8,1.9,0.8S143.8,37.4,144.3,36.9z"/>
		<path class="st5" d="M158.1,30.5c0.9,0.8,1.3,2,1.3,3.5v6h-2.9v-1.3c-0.6,1-1.6,1.5-3.2,1.5c-0.8,0-1.5-0.1-2.1-0.4
			c-0.6-0.3-1-0.7-1.4-1.1c-0.3-0.5-0.5-1-0.5-1.6c0-1,0.4-1.8,1.1-2.3s1.9-0.8,3.4-0.8h2.4c0-0.7-0.2-1.2-0.6-1.5
			c-0.4-0.4-1-0.5-1.8-0.5c-0.6,0-1.1,0.1-1.7,0.3c-0.5,0.2-1,0.4-1.4,0.7l-1.1-2.1c0.6-0.4,1.3-0.7,2.1-0.9s1.6-0.3,2.5-0.3
			C155.9,29.3,157.2,29.7,158.1,30.5z M155.5,37.8c0.4-0.2,0.7-0.6,0.9-1.1v-1.1h-2.1c-1.3,0-1.9,0.4-1.9,1.2c0,0.4,0.2,0.7,0.5,0.9
			s0.7,0.3,1.3,0.3C154.6,38.1,155.1,38,155.5,37.8z"/>
		<path class="st5" d="M166.6,29.7c0.6-0.3,1.3-0.4,2.1-0.4v2.8c-0.3,0-0.6,0-0.7,0c-0.9,0-1.6,0.2-2.1,0.7s-0.7,1.2-0.7,2.2v5h-3.1
			V29.5h2.9v1.4C165.4,30.4,165.9,30,166.6,29.7z"/>
		<path class="st5" d="M181.2,25.5V40h-2.9v-1.2c-0.8,0.9-1.9,1.4-3.3,1.4c-1,0-1.9-0.2-2.7-0.7c-0.8-0.4-1.4-1.1-1.9-1.9
			c-0.5-0.8-0.7-1.8-0.7-2.9s0.2-2,0.7-2.9c0.5-0.8,1.1-1.5,1.9-1.9c0.8-0.4,1.7-0.7,2.7-0.7c1.3,0,2.4,0.4,3.2,1.3v-5.1h3V25.5z
			 M177.4,36.9c0.5-0.5,0.8-1.2,0.8-2.1s-0.3-1.6-0.8-2.1s-1.2-0.8-1.9-0.8c-0.8,0-1.4,0.3-1.9,0.8s-0.8,1.2-0.8,2.1
			s0.3,1.6,0.8,2.1s1.2,0.8,1.9,0.8C176.3,37.7,176.9,37.4,177.4,36.9z"/>
	</g>
	<g>
		<g>
			<path class="st4" d="M53.1,10.2h1.3l3.9,9.1l4-9.1h1.3L58.5,22h-0.3L53.1,10.2z"/>
			<path class="st4" d="M65.9,9.7c0.3,0,0.5,0.1,0.7,0.3s0.3,0.4,0.3,0.7s-0.1,0.5-0.3,0.7c-0.2,0.2-0.4,0.3-0.7,0.3
				c-0.3,0-0.5-0.1-0.6-0.3C65.1,11.2,65,11,65,10.7s0.1-0.5,0.3-0.7C65.5,9.8,65.7,9.7,65.9,9.7z M65.4,13.3h1.1V22h-1.1V13.3z"/>
			<path class="st4" d="M73.3,14.3L72.6,15c-0.6-0.6-1.2-0.9-1.8-0.9c-0.4,0-0.7,0.1-0.9,0.4c-0.3,0.2-0.4,0.5-0.4,0.8
				s0.1,0.6,0.3,0.8c0.2,0.3,0.7,0.6,1.4,0.9c0.8,0.4,1.4,0.9,1.7,1.3c0.3,0.4,0.4,0.9,0.4,1.4c0,0.7-0.3,1.3-0.8,1.8
				s-1.1,0.7-1.9,0.7c-0.5,0-1-0.1-1.4-0.3c-0.5-0.2-0.8-0.5-1.1-0.9l0.7-0.8c0.6,0.6,1.2,1,1.8,1c0.5,0,0.8-0.1,1.2-0.4
				c0.3-0.3,0.5-0.6,0.5-1c0-0.3-0.1-0.6-0.3-0.9c-0.2-0.2-0.7-0.6-1.4-0.9c-0.8-0.4-1.3-0.8-1.6-1.2c-0.3-0.4-0.4-0.8-0.4-1.4
				c0-0.7,0.2-1.2,0.7-1.7c0.5-0.4,1-0.7,1.7-0.7C71.7,13.1,72.5,13.5,73.3,14.3z"/>
			<path class="st4" d="M75.2,13.3h1.1v4.1c0,1,0.1,1.7,0.2,2.1c0.2,0.5,0.5,1,0.9,1.3c0.5,0.3,1,0.5,1.6,0.5s1.2-0.2,1.6-0.5
				s0.7-0.7,0.9-1.2c0.1-0.3,0.2-1.1,0.2-2.1v-4.1h1.1v4.3c0,1.2-0.1,2.1-0.4,2.7s-0.7,1.1-1.3,1.4s-1.3,0.5-2.1,0.5
				c-0.9,0-1.6-0.2-2.1-0.5c-0.6-0.3-1-0.8-1.3-1.4s-0.4-1.5-0.4-2.8L75.2,13.3L75.2,13.3z"/>
			<path class="st4" d="M94.2,13.3V22h-1.1v-1.5c-0.5,0.6-1,1-1.6,1.3s-1.2,0.4-1.9,0.4c-1.2,0-2.3-0.5-3.2-1.3s-1.3-2-1.3-3.3
				s0.4-2.3,1.3-3.2s1.9-1.3,3.2-1.3c0.7,0,1.4,0.2,1.9,0.5c0.6,0.3,1.1,0.8,1.5,1.4v-1.6L94.2,13.3L94.2,13.3z M89.7,14.2
				c-0.6,0-1.2,0.2-1.7,0.5s-1,0.7-1.3,1.3s-0.5,1.1-0.5,1.8c0,0.6,0.2,1.2,0.5,1.8c0.3,0.6,0.7,1,1.3,1.3c0.5,0.3,1.1,0.5,1.7,0.5
				s1.2-0.2,1.8-0.5c0.6-0.3,1-0.7,1.3-1.3c0.3-0.5,0.4-1.1,0.4-1.8c0-1-0.3-1.9-1-2.5C91.5,14.5,90.7,14.2,89.7,14.2z"/>
			<path class="st4" d="M96.6,9.9h1.1V22h-1.1V9.9z"/>
			<path class="st4" d="M105,10.2h2.4c1.4,0,2.3,0.1,2.7,0.2c0.7,0.2,1.2,0.5,1.7,1c0.4,0.5,0.6,1.2,0.6,2s-0.2,1.4-0.6,1.9
				s-1,0.9-1.7,1c-0.5,0.1-1.5,0.2-3,0.2h-0.8V22H105V10.2z M106.2,11.4v4h2c0.8,0,1.4-0.1,1.8-0.2c0.4-0.1,0.7-0.4,0.9-0.7
				c0.2-0.3,0.3-0.7,0.3-1.1c0-0.4-0.1-0.8-0.3-1.1c-0.2-0.3-0.5-0.6-0.8-0.7c-0.4-0.1-0.9-0.2-1.7-0.2H106.2z"/>
			<path class="st4" d="M123.4,13.3V22h-1.1v-1.5c-0.5,0.6-1,1-1.6,1.3s-1.2,0.4-1.9,0.4c-1.2,0-2.3-0.5-3.2-1.3s-1.3-2-1.3-3.3
				s0.4-2.3,1.3-3.2s1.9-1.3,3.2-1.3c0.7,0,1.4,0.2,1.9,0.5c0.6,0.3,1.1,0.8,1.5,1.4v-1.6L123.4,13.3L123.4,13.3z M118.9,14.2
				c-0.6,0-1.2,0.2-1.7,0.5s-1,0.7-1.3,1.3s-0.5,1.1-0.5,1.8c0,0.6,0.2,1.2,0.5,1.8c0.3,0.6,0.7,1,1.3,1.3c0.5,0.3,1.1,0.5,1.7,0.5
				s1.2-0.2,1.8-0.5c0.6-0.3,1-0.7,1.3-1.3c0.3-0.5,0.4-1.1,0.4-1.8c0-1-0.3-1.9-1-2.5C120.7,14.5,119.9,14.2,118.9,14.2z"/>
			<path class="st4" d="M125.6,13.3h1.1v1.3c0.3-0.5,0.7-0.9,1.1-1.1c0.4-0.2,0.8-0.4,1.2-0.4c0.3,0,0.6,0.1,1,0.3l-0.6,0.9
				c-0.2-0.1-0.4-0.2-0.6-0.2c-0.4,0-0.7,0.2-1.1,0.5c-0.3,0.3-0.6,0.8-0.8,1.4c-0.1,0.5-0.2,1.5-0.2,3v3h-1.1
				C125.6,22,125.6,13.3,125.6,13.3z"/>
			<path class="st4" d="M139.7,13.3V22h-1.1v-1.5c-0.5,0.6-1,1-1.6,1.3s-1.2,0.4-1.9,0.4c-1.2,0-2.3-0.5-3.2-1.3
				c-0.9-0.9-1.3-2-1.3-3.3s0.4-2.3,1.3-3.2c0.9-0.9,1.9-1.3,3.2-1.3c0.7,0,1.4,0.2,1.9,0.5c0.6,0.3,1.1,0.8,1.5,1.4v-1.6
				L139.7,13.3L139.7,13.3z M135.2,14.2c-0.6,0-1.2,0.2-1.7,0.5s-1,0.7-1.3,1.3s-0.5,1.1-0.5,1.8c0,0.6,0.2,1.2,0.5,1.8
				c0.3,0.6,0.7,1,1.3,1.3c0.5,0.3,1.1,0.5,1.7,0.5c0.6,0,1.2-0.2,1.8-0.5s1-0.7,1.3-1.3c0.3-0.5,0.4-1.1,0.4-1.8c0-1-0.3-1.9-1-2.5
				C137,14.5,136.2,14.2,135.2,14.2z"/>
			<path class="st4" d="M151.1,9.9V22H150v-1.5c-0.5,0.6-1,1-1.6,1.3s-1.2,0.4-1.9,0.4c-1.2,0-2.3-0.5-3.2-1.3
				c-0.9-0.9-1.3-2-1.3-3.3s0.4-2.3,1.3-3.2c0.9-0.9,1.9-1.3,3.2-1.3c0.7,0,1.4,0.2,1.9,0.5c0.6,0.3,1.1,0.8,1.5,1.4v-5h1.2
				L151.1,9.9L151.1,9.9z M146.6,14.2c-0.6,0-1.2,0.2-1.7,0.5s-1,0.7-1.3,1.3s-0.5,1.1-0.5,1.8c0,0.6,0.2,1.2,0.5,1.8
				c0.3,0.6,0.7,1,1.3,1.3c0.5,0.3,1.1,0.5,1.7,0.5c0.6,0,1.2-0.2,1.8-0.5s1-0.7,1.3-1.3c0.3-0.5,0.4-1.1,0.4-1.8c0-1-0.3-1.9-1-2.5
				C148.4,14.5,147.6,14.2,146.6,14.2z"/>
			<path class="st4" d="M154.1,9.7c0.3,0,0.5,0.1,0.7,0.3s0.3,0.4,0.3,0.7s-0.1,0.5-0.3,0.7s-0.4,0.3-0.7,0.3s-0.5-0.1-0.6-0.3
				c-0.2-0.2-0.3-0.4-0.3-0.7s0.1-0.5,0.3-0.7C153.6,9.8,153.9,9.7,154.1,9.7z M153.6,13.3h1.1V22h-1.1V13.3z"/>
			<path class="st4" d="M164.6,13.3h1.1v7c0,1.2-0.1,2.1-0.3,2.7c-0.3,0.8-0.8,1.4-1.5,1.9s-1.6,0.7-2.6,0.7c-0.8,0-1.4-0.1-2-0.3
				c-0.6-0.2-1.1-0.5-1.5-0.9s-0.7-0.9-1-1.6h1.2c0.3,0.6,0.8,1,1.3,1.3s1.2,0.4,2,0.4s1.4-0.1,1.9-0.4s0.9-0.6,1.1-1.1
				c0.2-0.4,0.3-1.1,0.3-2.1v-0.5c-0.4,0.5-0.9,0.9-1.6,1.2c-0.6,0.3-1.3,0.4-1.9,0.4c-0.8,0-1.6-0.2-2.3-0.6s-1.3-0.9-1.6-1.6
				c-0.4-0.7-0.6-1.4-0.6-2.2c0-0.8,0.2-1.6,0.6-2.3c0.4-0.7,1-1.3,1.7-1.7s1.5-0.6,2.2-0.6s1.3,0.1,1.8,0.4
				c0.6,0.3,1.1,0.7,1.6,1.3v-1.4C164.5,13.3,164.6,13.3,164.6,13.3z M161.3,14.2c-0.6,0-1.2,0.2-1.8,0.5c-0.5,0.3-1,0.7-1.3,1.3
				s-0.5,1.1-0.5,1.8c0,1,0.3,1.8,1,2.4c0.6,0.6,1.5,0.9,2.5,0.9s1.9-0.3,2.5-0.9s0.9-1.4,0.9-2.5c0-0.7-0.1-1.2-0.4-1.8
				c-0.3-0.5-0.7-0.9-1.2-1.2C162.5,14.3,161.9,14.2,161.3,14.2z"/>
			<path class="st4" d="M168.3,13.3h1.1v1.5c0.4-0.6,0.8-1,1.2-1.2c0.6-0.3,1.2-0.5,1.8-0.5c0.4,0,0.8,0.1,1.2,0.2
				c0.4,0.2,0.7,0.4,0.9,0.7s0.5,0.7,0.6,1.2c0.4-0.7,0.8-1.2,1.4-1.6c0.6-0.4,1.2-0.5,1.8-0.5s1.1,0.2,1.6,0.5s0.8,0.7,1,1.3
				c0.2,0.5,0.3,1.4,0.3,2.5v4.8h-1.1v-4.8c0-0.9-0.1-1.6-0.2-1.9c-0.1-0.4-0.4-0.6-0.7-0.8s-0.7-0.3-1.2-0.3s-1,0.2-1.5,0.5
				s-0.8,0.8-1,1.3c-0.2,0.5-0.3,1.4-0.3,2.7v3.4h-1.1v-4.5c0-1.1-0.1-1.8-0.2-2.2c-0.1-0.4-0.4-0.7-0.7-0.9s-0.7-0.3-1.2-0.3
				s-1,0.2-1.5,0.5s-0.8,0.7-1,1.3c-0.2,0.6-0.3,1.3-0.3,2.4v3.7h-1.1v-9C168.1,13.3,168.3,13.3,168.3,13.3z"/>
		</g>
	</g>
</g>
</svg>
